G04 #@! TF.GenerationSoftware,KiCad,Pcbnew,(5.1.5-0-10_14)*
G04 #@! TF.CreationDate,2020-02-04T10:15:42+01:00*
G04 #@! TF.ProjectId,FeatherCAN,46656174-6865-4724-9341-4e2e6b696361,1.0*
G04 #@! TF.SameCoordinates,Original*
G04 #@! TF.FileFunction,Other,Fab,Top*
%FSLAX46Y46*%
G04 Gerber Fmt 4.6, Leading zero omitted, Abs format (unit mm)*
G04 Created by KiCad (PCBNEW (5.1.5-0-10_14)) date 2020-02-04 10:15:42*
%MOMM*%
%LPD*%
G04 APERTURE LIST*
%ADD10C,0.100000*%
%ADD11C,0.150000*%
%ADD12C,0.060000*%
%ADD13C,0.075000*%
%ADD14C,0.105000*%
G04 APERTURE END LIST*
D10*
X144500000Y-103900000D02*
X144500000Y-102300000D01*
X145300000Y-103900000D02*
X144500000Y-103900000D01*
X145300000Y-102300000D02*
X145300000Y-103900000D01*
X144500000Y-102300000D02*
X145300000Y-102300000D01*
X158225000Y-114475000D02*
X158225000Y-113675000D01*
X158225000Y-113675000D02*
X159825000Y-113675000D01*
X159825000Y-113675000D02*
X159825000Y-114475000D01*
X159825000Y-114475000D02*
X158225000Y-114475000D01*
X149700000Y-100900000D02*
X149700000Y-99300000D01*
X150500000Y-100900000D02*
X149700000Y-100900000D01*
X150500000Y-99300000D02*
X150500000Y-100900000D01*
X149700000Y-99300000D02*
X150500000Y-99300000D01*
X128200000Y-110450000D02*
X128200000Y-110650000D01*
X128200000Y-110450000D02*
X128350000Y-110600000D01*
X130000000Y-108950000D02*
X129850000Y-108800000D01*
X130000000Y-98850000D02*
X129850000Y-99000000D01*
X128200000Y-97350000D02*
X128350000Y-97200000D01*
X128200000Y-97150000D02*
X128200000Y-97350000D01*
X122600000Y-110650000D02*
X122600000Y-110450000D01*
X122600000Y-97150000D02*
X122600000Y-97350000D01*
X131700000Y-103900000D02*
G75*
G03X131700000Y-103900000I-6250000J0D01*
G01*
X121250000Y-105700000D02*
G75*
G03X121250000Y-102100000I-1800000J1800000D01*
G01*
X122600000Y-110450000D02*
X121250000Y-109300000D01*
X122600000Y-97350000D02*
X121250000Y-98500000D01*
X128200000Y-97350000D02*
X129850000Y-99000000D01*
X122600000Y-97350000D02*
X128200000Y-97350000D01*
X128200000Y-110450000D02*
X129850000Y-108800000D01*
X122600000Y-110450000D02*
X128200000Y-110450000D01*
X128350000Y-110600000D02*
X130000000Y-108950000D01*
X128350000Y-97200000D02*
X130000000Y-98850000D01*
X129850000Y-108800000D02*
X129850000Y-99000000D01*
X122600000Y-110650000D02*
X128200000Y-110650000D01*
X122600000Y-97150000D02*
X128200000Y-97150000D01*
X128000000Y-111550000D02*
X128000000Y-110650000D01*
X126000000Y-111550000D02*
X128000000Y-111550000D01*
X126000000Y-110650000D02*
X126000000Y-111550000D01*
X124900000Y-111550000D02*
X124900000Y-110650000D01*
X122900000Y-111550000D02*
X124900000Y-111550000D01*
X122900000Y-110650000D02*
X122900000Y-111550000D01*
X122900000Y-96250000D02*
X122900000Y-97150000D01*
X124900000Y-96250000D02*
X122900000Y-96250000D01*
X124900000Y-97150000D02*
X124900000Y-96250000D01*
X126000000Y-96250000D02*
X126000000Y-97150000D01*
X128000000Y-96250000D02*
X128000000Y-97150000D01*
X128000000Y-96250000D02*
X126000000Y-96250000D01*
X121250000Y-105700000D02*
G75*
G03X121250000Y-109300000I1800000J-1800000D01*
G01*
X121250000Y-98500000D02*
G75*
G03X121250000Y-102100000I1800000J-1800000D01*
G01*
X130678159Y-110785876D02*
X130678159Y-109407017D01*
X133453553Y-113561270D02*
X130678159Y-110785876D01*
X136211270Y-110803553D02*
X133453553Y-113561270D01*
X132746447Y-107338730D02*
X136211270Y-110803553D01*
X130678159Y-109407017D02*
X132746447Y-107338730D01*
D11*
X147650000Y-107800000D02*
X147650000Y-111200000D01*
X147650000Y-111200000D02*
X141150000Y-111200000D01*
X141150000Y-111200000D02*
X141150000Y-106800000D01*
X141150000Y-106800000D02*
X146650000Y-106800000D01*
X146650000Y-106800000D02*
X147650000Y-107800000D01*
D10*
X152525000Y-103600000D02*
X155450000Y-103600000D01*
X155450000Y-103600000D02*
X155450000Y-108500000D01*
X155450000Y-108500000D02*
X151550000Y-108500000D01*
X151550000Y-108500000D02*
X151550000Y-104575000D01*
X151550000Y-104575000D02*
X152525000Y-103600000D01*
X151300000Y-100900000D02*
X152100000Y-100900000D01*
X151300000Y-99300000D02*
X151300000Y-100900000D01*
X151800000Y-99300000D02*
X151300000Y-99300000D01*
X152100000Y-99600000D02*
X151800000Y-99300000D01*
X152100000Y-100900000D02*
X152100000Y-99600000D01*
X148800000Y-100900000D02*
X148800000Y-99600000D01*
X148800000Y-99600000D02*
X148500000Y-99300000D01*
X148500000Y-99300000D02*
X148000000Y-99300000D01*
X148000000Y-99300000D02*
X148000000Y-100900000D01*
X148000000Y-100900000D02*
X148800000Y-100900000D01*
X154700000Y-110600000D02*
X154700000Y-113050000D01*
X155250000Y-110030000D02*
X156100000Y-110030000D01*
X154700000Y-110600000D02*
X155250000Y-110030000D01*
X156100000Y-110030000D02*
X156100000Y-113070000D01*
X154700000Y-113070000D02*
X156100000Y-113070000D01*
X159685000Y-111120000D02*
X157780000Y-111120000D01*
X157780000Y-111120000D02*
X157780000Y-100960000D01*
X157780000Y-100960000D02*
X160320000Y-100960000D01*
X160320000Y-100960000D02*
X160320000Y-110485000D01*
X160320000Y-110485000D02*
X159685000Y-111120000D01*
X162700000Y-109400000D02*
X162700000Y-102650000D01*
X166900000Y-109400000D02*
X166900000Y-102650000D01*
X162700000Y-109400000D02*
X166900000Y-109400000D01*
X162700000Y-102650000D02*
X166900000Y-102650000D01*
X163700000Y-109400000D02*
X163700000Y-110900000D01*
X163700000Y-110900000D02*
X163900000Y-111100000D01*
X163900000Y-111100000D02*
X165700000Y-111100000D01*
X165700000Y-111100000D02*
X165900000Y-110900000D01*
X165900000Y-110900000D02*
X166500000Y-110900000D01*
X166500000Y-110900000D02*
X166500000Y-109400000D01*
X163700000Y-102650000D02*
X163700000Y-101150000D01*
X163700000Y-101150000D02*
X163900000Y-100950000D01*
X163900000Y-100950000D02*
X165700000Y-100950000D01*
X165700000Y-100950000D02*
X165900000Y-101150000D01*
X165900000Y-101150000D02*
X166500000Y-101150000D01*
X166500000Y-101150000D02*
X166500000Y-102650000D01*
X162700000Y-108400000D02*
X163407107Y-107900000D01*
X163407107Y-107900000D02*
X162700000Y-107400000D01*
X153300000Y-112400000D02*
X152500000Y-112400000D01*
X152500000Y-112400000D02*
X152500000Y-110800000D01*
X152500000Y-110800000D02*
X153300000Y-110800000D01*
X153300000Y-110800000D02*
X153300000Y-112400000D01*
X138700000Y-102300000D02*
X139500000Y-102300000D01*
X139500000Y-102300000D02*
X139500000Y-103900000D01*
X139500000Y-103900000D02*
X138700000Y-103900000D01*
X138700000Y-103900000D02*
X138700000Y-102300000D01*
X156950000Y-103000000D02*
X155350000Y-103000000D01*
X156950000Y-102200000D02*
X156950000Y-103000000D01*
X155350000Y-102200000D02*
X156950000Y-102200000D01*
X155350000Y-103000000D02*
X155350000Y-102200000D01*
X139600000Y-107800000D02*
X139600000Y-106200000D01*
X140400000Y-107800000D02*
X139600000Y-107800000D01*
X140400000Y-106200000D02*
X140400000Y-107800000D01*
X139600000Y-106200000D02*
X140400000Y-106200000D01*
X159600000Y-100000000D02*
X158000000Y-100000000D01*
X159600000Y-99200000D02*
X159600000Y-100000000D01*
X158000000Y-99200000D02*
X159600000Y-99200000D01*
X158000000Y-100000000D02*
X158000000Y-99200000D01*
X153900000Y-102200000D02*
X153900000Y-103000000D01*
X153900000Y-103000000D02*
X152300000Y-103000000D01*
X152300000Y-103000000D02*
X152300000Y-102200000D01*
X152300000Y-102200000D02*
X153900000Y-102200000D01*
X146400000Y-100900000D02*
X146400000Y-99300000D01*
X147200000Y-100900000D02*
X146400000Y-100900000D01*
X147200000Y-99300000D02*
X147200000Y-100900000D01*
X146400000Y-99300000D02*
X147200000Y-99300000D01*
X134400000Y-103700000D02*
X135200000Y-103700000D01*
X135200000Y-103700000D02*
X135200000Y-105300000D01*
X135200000Y-105300000D02*
X134400000Y-105300000D01*
X134400000Y-105300000D02*
X134400000Y-103700000D01*
X136000000Y-106400000D02*
X136000000Y-104800000D01*
X136800000Y-106400000D02*
X136000000Y-106400000D01*
X136800000Y-104800000D02*
X136800000Y-106400000D01*
X136000000Y-104800000D02*
X136800000Y-104800000D01*
X140400000Y-101750000D02*
X140400000Y-104250000D01*
X140400000Y-104250000D02*
X143600000Y-104250000D01*
X143600000Y-104250000D02*
X143600000Y-101750000D01*
X143600000Y-101750000D02*
X140400000Y-101750000D01*
X140400000Y-103250000D02*
X141400000Y-104250000D01*
X151700000Y-112400000D02*
X151700000Y-111100000D01*
X151700000Y-111100000D02*
X151400000Y-110800000D01*
X151400000Y-110800000D02*
X150900000Y-110800000D01*
X150900000Y-110800000D02*
X150900000Y-112400000D01*
X150900000Y-112400000D02*
X151700000Y-112400000D01*
X150100000Y-112462500D02*
X149300000Y-112462500D01*
X149300000Y-112462500D02*
X149300000Y-110862500D01*
X149300000Y-110862500D02*
X150100000Y-110862500D01*
X150100000Y-110862500D02*
X150100000Y-112462500D01*
X147600000Y-113525000D02*
X149200000Y-113525000D01*
X147600000Y-114325000D02*
X147600000Y-113525000D01*
X149200000Y-114325000D02*
X147600000Y-114325000D01*
X149200000Y-113525000D02*
X149200000Y-114325000D01*
X159850000Y-112075000D02*
X158550000Y-112075000D01*
X158550000Y-112075000D02*
X158250000Y-112375000D01*
X158250000Y-112375000D02*
X158250000Y-112875000D01*
X158250000Y-112875000D02*
X159850000Y-112875000D01*
X159850000Y-112875000D02*
X159850000Y-112075000D01*
X143410476Y-103588095D02*
X143386666Y-103635714D01*
X143362857Y-103659523D01*
X143315238Y-103683333D01*
X143291428Y-103683333D01*
X143243809Y-103659523D01*
X143220000Y-103635714D01*
X143196190Y-103588095D01*
X143196190Y-103492857D01*
X143220000Y-103445238D01*
X143243809Y-103421428D01*
X143291428Y-103397619D01*
X143315238Y-103397619D01*
X143362857Y-103421428D01*
X143386666Y-103445238D01*
X143410476Y-103492857D01*
X143410476Y-103588095D01*
X143434285Y-103635714D01*
X143458095Y-103659523D01*
X143505714Y-103683333D01*
X143600952Y-103683333D01*
X143648571Y-103659523D01*
X143672380Y-103635714D01*
X143696190Y-103588095D01*
X143696190Y-103492857D01*
X143672380Y-103445238D01*
X143648571Y-103421428D01*
X143600952Y-103397619D01*
X143505714Y-103397619D01*
X143458095Y-103421428D01*
X143434285Y-103445238D01*
X143410476Y-103492857D01*
X143362857Y-103183333D02*
X143862857Y-103183333D01*
X143386666Y-103183333D02*
X143362857Y-103135714D01*
X143362857Y-103040476D01*
X143386666Y-102992857D01*
X143410476Y-102969047D01*
X143458095Y-102945238D01*
X143600952Y-102945238D01*
X143648571Y-102969047D01*
X143672380Y-102992857D01*
X143696190Y-103040476D01*
X143696190Y-103135714D01*
X143672380Y-103183333D01*
X143434285Y-102564285D02*
X143434285Y-102730952D01*
X143696190Y-102730952D02*
X143196190Y-102730952D01*
X143196190Y-102492857D01*
D12*
X145042857Y-103166666D02*
X145061904Y-103185714D01*
X145080952Y-103242857D01*
X145080952Y-103280952D01*
X145061904Y-103338095D01*
X145023809Y-103376190D01*
X144985714Y-103395238D01*
X144909523Y-103414285D01*
X144852380Y-103414285D01*
X144776190Y-103395238D01*
X144738095Y-103376190D01*
X144700000Y-103338095D01*
X144680952Y-103280952D01*
X144680952Y-103242857D01*
X144700000Y-103185714D01*
X144719047Y-103166666D01*
X144814285Y-102823809D02*
X145080952Y-102823809D01*
X144661904Y-102919047D02*
X144947619Y-103014285D01*
X144947619Y-102766666D01*
D10*
X158727380Y-115731190D02*
X158441666Y-115731190D01*
X158584523Y-115731190D02*
X158584523Y-115231190D01*
X158536904Y-115302619D01*
X158489285Y-115350238D01*
X158441666Y-115374047D01*
X159155952Y-115397857D02*
X159155952Y-115731190D01*
X158941666Y-115397857D02*
X158941666Y-115659761D01*
X158965476Y-115707380D01*
X159013095Y-115731190D01*
X159084523Y-115731190D01*
X159132142Y-115707380D01*
X159155952Y-115683571D01*
X159560714Y-115469285D02*
X159394047Y-115469285D01*
X159394047Y-115731190D02*
X159394047Y-115231190D01*
X159632142Y-115231190D01*
D12*
X158958333Y-114217857D02*
X158939285Y-114236904D01*
X158882142Y-114255952D01*
X158844047Y-114255952D01*
X158786904Y-114236904D01*
X158748809Y-114198809D01*
X158729761Y-114160714D01*
X158710714Y-114084523D01*
X158710714Y-114027380D01*
X158729761Y-113951190D01*
X158748809Y-113913095D01*
X158786904Y-113875000D01*
X158844047Y-113855952D01*
X158882142Y-113855952D01*
X158939285Y-113875000D01*
X158958333Y-113894047D01*
X159339285Y-114255952D02*
X159110714Y-114255952D01*
X159225000Y-114255952D02*
X159225000Y-113855952D01*
X159186904Y-113913095D01*
X159148809Y-113951190D01*
X159110714Y-113970238D01*
D10*
X148896190Y-100159523D02*
X148896190Y-100445238D01*
X148896190Y-100302380D02*
X148396190Y-100302380D01*
X148467619Y-100350000D01*
X148515238Y-100397619D01*
X148539047Y-100445238D01*
X148896190Y-99945238D02*
X148396190Y-99945238D01*
X148705714Y-99897619D02*
X148896190Y-99754761D01*
X148562857Y-99754761D02*
X148753333Y-99945238D01*
D12*
X150280952Y-100166666D02*
X150090476Y-100300000D01*
X150280952Y-100395238D02*
X149880952Y-100395238D01*
X149880952Y-100242857D01*
X149900000Y-100204761D01*
X149919047Y-100185714D01*
X149957142Y-100166666D01*
X150014285Y-100166666D01*
X150052380Y-100185714D01*
X150071428Y-100204761D01*
X150090476Y-100242857D01*
X150090476Y-100395238D01*
X149880952Y-100033333D02*
X149880952Y-99785714D01*
X150033333Y-99919047D01*
X150033333Y-99861904D01*
X150052380Y-99823809D01*
X150071428Y-99804761D01*
X150109523Y-99785714D01*
X150204761Y-99785714D01*
X150242857Y-99804761D01*
X150261904Y-99823809D01*
X150280952Y-99861904D01*
X150280952Y-99976190D01*
X150261904Y-100014285D01*
X150242857Y-100033333D01*
D10*
X125414285Y-104292857D02*
X125438095Y-104221428D01*
X125461904Y-104197619D01*
X125509523Y-104173809D01*
X125580952Y-104173809D01*
X125628571Y-104197619D01*
X125652380Y-104221428D01*
X125676190Y-104269047D01*
X125676190Y-104459523D01*
X125176190Y-104459523D01*
X125176190Y-104292857D01*
X125200000Y-104245238D01*
X125223809Y-104221428D01*
X125271428Y-104197619D01*
X125319047Y-104197619D01*
X125366666Y-104221428D01*
X125390476Y-104245238D01*
X125414285Y-104292857D01*
X125414285Y-104459523D01*
X125176190Y-104030952D02*
X125176190Y-103745238D01*
X125676190Y-103888095D02*
X125176190Y-103888095D01*
X125676190Y-103316666D02*
X125676190Y-103602380D01*
X125676190Y-103459523D02*
X125176190Y-103459523D01*
X125247619Y-103507142D01*
X125295238Y-103554761D01*
X125319047Y-103602380D01*
X134359323Y-114318884D02*
X134005770Y-113965330D01*
X134089949Y-113881151D01*
X134157292Y-113847479D01*
X134224636Y-113847479D01*
X134275144Y-113864315D01*
X134359323Y-113914823D01*
X134409831Y-113965330D01*
X134460338Y-114049510D01*
X134477174Y-114100017D01*
X134477174Y-114167361D01*
X134443502Y-114234704D01*
X134359323Y-114318884D01*
X134679205Y-113965330D02*
X134746548Y-113931659D01*
X134830727Y-113847479D01*
X134847563Y-113796972D01*
X134847563Y-113763300D01*
X134830727Y-113712792D01*
X134797056Y-113679120D01*
X134746548Y-113662285D01*
X134712876Y-113662285D01*
X134662369Y-113679120D01*
X134578189Y-113729628D01*
X134527682Y-113746464D01*
X134494010Y-113746464D01*
X134443502Y-113729628D01*
X134409831Y-113695956D01*
X134392995Y-113645449D01*
X134392995Y-113611777D01*
X134409831Y-113561269D01*
X134494010Y-113477090D01*
X134561353Y-113443418D01*
X134662369Y-113308731D02*
X134881235Y-113089865D01*
X134898071Y-113342403D01*
X134948579Y-113291895D01*
X134999086Y-113275059D01*
X135032758Y-113275059D01*
X135083266Y-113291895D01*
X135167445Y-113376075D01*
X135184281Y-113426582D01*
X135184281Y-113460254D01*
X135167445Y-113510762D01*
X135066430Y-113611777D01*
X135015922Y-113628613D01*
X134982250Y-113628613D01*
X135049594Y-112988850D02*
X135049594Y-112955178D01*
X135066430Y-112904670D01*
X135150609Y-112820491D01*
X135201117Y-112803655D01*
X135234788Y-112803655D01*
X135285296Y-112820491D01*
X135318968Y-112854163D01*
X135352640Y-112921506D01*
X135352640Y-113325567D01*
X135571506Y-113106701D01*
X135335804Y-112635296D02*
X135554670Y-112416430D01*
X135571506Y-112668968D01*
X135622014Y-112618460D01*
X135672521Y-112601624D01*
X135706193Y-112601624D01*
X135756701Y-112618460D01*
X135840880Y-112702640D01*
X135857716Y-112753147D01*
X135857716Y-112786819D01*
X135840880Y-112837327D01*
X135739865Y-112938342D01*
X135689357Y-112955178D01*
X135655685Y-112955178D01*
X136244941Y-112433266D02*
X136042911Y-112635296D01*
X136143926Y-112534281D02*
X135790372Y-112180727D01*
X135807208Y-112264907D01*
X135807208Y-112332250D01*
X135790372Y-112382758D01*
X136396464Y-112281743D02*
X136042911Y-111928189D01*
X136413300Y-112062876D01*
X136278613Y-111692487D01*
X136632166Y-112046040D01*
X136413300Y-111557800D02*
X136649002Y-111322098D01*
X136766853Y-111911353D01*
X137002555Y-111675651D01*
X132192546Y-110598492D02*
X132753517Y-111159463D01*
X132852512Y-111192462D01*
X132918509Y-111192462D01*
X133017504Y-111159463D01*
X133149497Y-111027470D01*
X133182495Y-110928475D01*
X133182495Y-110862478D01*
X133149497Y-110763484D01*
X132588526Y-110202512D01*
X133974455Y-110202512D02*
X133578475Y-110598492D01*
X133776465Y-110400502D02*
X133083500Y-109707537D01*
X133116499Y-109872529D01*
X133116499Y-110004522D01*
X133083500Y-110103517D01*
X140326190Y-111559523D02*
X139826190Y-111559523D01*
X140183333Y-111392857D01*
X139826190Y-111226190D01*
X140326190Y-111226190D01*
X140278571Y-110702380D02*
X140302380Y-110726190D01*
X140326190Y-110797619D01*
X140326190Y-110845238D01*
X140302380Y-110916666D01*
X140254761Y-110964285D01*
X140207142Y-110988095D01*
X140111904Y-111011904D01*
X140040476Y-111011904D01*
X139945238Y-110988095D01*
X139897619Y-110964285D01*
X139850000Y-110916666D01*
X139826190Y-110845238D01*
X139826190Y-110797619D01*
X139850000Y-110726190D01*
X139873809Y-110702380D01*
X140326190Y-110488095D02*
X139826190Y-110488095D01*
X139826190Y-110297619D01*
X139850000Y-110250000D01*
X139873809Y-110226190D01*
X139921428Y-110202380D01*
X139992857Y-110202380D01*
X140040476Y-110226190D01*
X140064285Y-110250000D01*
X140088095Y-110297619D01*
X140088095Y-110488095D01*
X139873809Y-110011904D02*
X139850000Y-109988095D01*
X139826190Y-109940476D01*
X139826190Y-109821428D01*
X139850000Y-109773809D01*
X139873809Y-109750000D01*
X139921428Y-109726190D01*
X139969047Y-109726190D01*
X140040476Y-109750000D01*
X140326190Y-110035714D01*
X140326190Y-109726190D01*
X139826190Y-109273809D02*
X139826190Y-109511904D01*
X140064285Y-109535714D01*
X140040476Y-109511904D01*
X140016666Y-109464285D01*
X140016666Y-109345238D01*
X140040476Y-109297619D01*
X140064285Y-109273809D01*
X140111904Y-109250000D01*
X140230952Y-109250000D01*
X140278571Y-109273809D01*
X140302380Y-109297619D01*
X140326190Y-109345238D01*
X140326190Y-109464285D01*
X140302380Y-109511904D01*
X140278571Y-109535714D01*
X140326190Y-108773809D02*
X140326190Y-109059523D01*
X140326190Y-108916666D02*
X139826190Y-108916666D01*
X139897619Y-108964285D01*
X139945238Y-109011904D01*
X139969047Y-109059523D01*
X139826190Y-108321428D02*
X139826190Y-108559523D01*
X140064285Y-108583333D01*
X140040476Y-108559523D01*
X140016666Y-108511904D01*
X140016666Y-108392857D01*
X140040476Y-108345238D01*
X140064285Y-108321428D01*
X140111904Y-108297619D01*
X140230952Y-108297619D01*
X140278571Y-108321428D01*
X140302380Y-108345238D01*
X140326190Y-108392857D01*
X140326190Y-108511904D01*
X140302380Y-108559523D01*
X140278571Y-108583333D01*
X140135714Y-108083333D02*
X140135714Y-107702380D01*
X140326190Y-107511904D02*
X139992857Y-107250000D01*
X139992857Y-107511904D02*
X140326190Y-107250000D01*
X140302380Y-107083333D02*
X140326190Y-107011904D01*
X140326190Y-106892857D01*
X140302380Y-106845238D01*
X140278571Y-106821428D01*
X140230952Y-106797619D01*
X140183333Y-106797619D01*
X140135714Y-106821428D01*
X140111904Y-106845238D01*
X140088095Y-106892857D01*
X140064285Y-106988095D01*
X140040476Y-107035714D01*
X140016666Y-107059523D01*
X139969047Y-107083333D01*
X139921428Y-107083333D01*
X139873809Y-107059523D01*
X139850000Y-107035714D01*
X139826190Y-106988095D01*
X139826190Y-106869047D01*
X139850000Y-106797619D01*
X139826190Y-106654761D02*
X139826190Y-106369047D01*
X140326190Y-106511904D02*
X139826190Y-106511904D01*
X143961904Y-109609523D02*
X144609523Y-109609523D01*
X144685714Y-109571428D01*
X144723809Y-109533333D01*
X144761904Y-109457142D01*
X144761904Y-109304761D01*
X144723809Y-109228571D01*
X144685714Y-109190476D01*
X144609523Y-109152380D01*
X143961904Y-109152380D01*
X144038095Y-108809523D02*
X144000000Y-108771428D01*
X143961904Y-108695238D01*
X143961904Y-108504761D01*
X144000000Y-108428571D01*
X144038095Y-108390476D01*
X144114285Y-108352380D01*
X144190476Y-108352380D01*
X144304761Y-108390476D01*
X144761904Y-108847619D01*
X144761904Y-108352380D01*
X150642857Y-109676190D02*
X150642857Y-109176190D01*
X150809523Y-109533333D01*
X150976190Y-109176190D01*
X150976190Y-109676190D01*
X151500000Y-109628571D02*
X151476190Y-109652380D01*
X151404761Y-109676190D01*
X151357142Y-109676190D01*
X151285714Y-109652380D01*
X151238095Y-109604761D01*
X151214285Y-109557142D01*
X151190476Y-109461904D01*
X151190476Y-109390476D01*
X151214285Y-109295238D01*
X151238095Y-109247619D01*
X151285714Y-109200000D01*
X151357142Y-109176190D01*
X151404761Y-109176190D01*
X151476190Y-109200000D01*
X151500000Y-109223809D01*
X151714285Y-109676190D02*
X151714285Y-109176190D01*
X151904761Y-109176190D01*
X151952380Y-109200000D01*
X151976190Y-109223809D01*
X152000000Y-109271428D01*
X152000000Y-109342857D01*
X151976190Y-109390476D01*
X151952380Y-109414285D01*
X151904761Y-109438095D01*
X151714285Y-109438095D01*
X152190476Y-109223809D02*
X152214285Y-109200000D01*
X152261904Y-109176190D01*
X152380952Y-109176190D01*
X152428571Y-109200000D01*
X152452380Y-109223809D01*
X152476190Y-109271428D01*
X152476190Y-109319047D01*
X152452380Y-109390476D01*
X152166666Y-109676190D01*
X152476190Y-109676190D01*
X152928571Y-109176190D02*
X152690476Y-109176190D01*
X152666666Y-109414285D01*
X152690476Y-109390476D01*
X152738095Y-109366666D01*
X152857142Y-109366666D01*
X152904761Y-109390476D01*
X152928571Y-109414285D01*
X152952380Y-109461904D01*
X152952380Y-109580952D01*
X152928571Y-109628571D01*
X152904761Y-109652380D01*
X152857142Y-109676190D01*
X152738095Y-109676190D01*
X152690476Y-109652380D01*
X152666666Y-109628571D01*
X153404761Y-109176190D02*
X153166666Y-109176190D01*
X153142857Y-109414285D01*
X153166666Y-109390476D01*
X153214285Y-109366666D01*
X153333333Y-109366666D01*
X153380952Y-109390476D01*
X153404761Y-109414285D01*
X153428571Y-109461904D01*
X153428571Y-109580952D01*
X153404761Y-109628571D01*
X153380952Y-109652380D01*
X153333333Y-109676190D01*
X153214285Y-109676190D01*
X153166666Y-109652380D01*
X153142857Y-109628571D01*
X153904761Y-109676190D02*
X153619047Y-109676190D01*
X153761904Y-109676190D02*
X153761904Y-109176190D01*
X153714285Y-109247619D01*
X153666666Y-109295238D01*
X153619047Y-109319047D01*
X154119047Y-109485714D02*
X154500000Y-109485714D01*
X154738095Y-109676190D02*
X154738095Y-109176190D01*
X154976190Y-109485714D02*
X155357142Y-109485714D01*
X155571428Y-109652380D02*
X155642857Y-109676190D01*
X155761904Y-109676190D01*
X155809523Y-109652380D01*
X155833333Y-109628571D01*
X155857142Y-109580952D01*
X155857142Y-109533333D01*
X155833333Y-109485714D01*
X155809523Y-109461904D01*
X155761904Y-109438095D01*
X155666666Y-109414285D01*
X155619047Y-109390476D01*
X155595238Y-109366666D01*
X155571428Y-109319047D01*
X155571428Y-109271428D01*
X155595238Y-109223809D01*
X155619047Y-109200000D01*
X155666666Y-109176190D01*
X155785714Y-109176190D01*
X155857142Y-109200000D01*
X156071428Y-109676190D02*
X156071428Y-109176190D01*
X156357142Y-109676190D01*
X156357142Y-109176190D01*
X152703333Y-105513333D02*
X152703333Y-106306666D01*
X152750000Y-106400000D01*
X152796666Y-106446666D01*
X152890000Y-106493333D01*
X153076666Y-106493333D01*
X153170000Y-106446666D01*
X153216666Y-106400000D01*
X153263333Y-106306666D01*
X153263333Y-105513333D01*
X153636666Y-105513333D02*
X154243333Y-105513333D01*
X153916666Y-105886666D01*
X154056666Y-105886666D01*
X154150000Y-105933333D01*
X154196666Y-105980000D01*
X154243333Y-106073333D01*
X154243333Y-106306666D01*
X154196666Y-106400000D01*
X154150000Y-106446666D01*
X154056666Y-106493333D01*
X153776666Y-106493333D01*
X153683333Y-106446666D01*
X153636666Y-106400000D01*
D12*
X151880952Y-100395238D02*
X151480952Y-100395238D01*
X151480952Y-100300000D01*
X151500000Y-100242857D01*
X151538095Y-100204761D01*
X151576190Y-100185714D01*
X151652380Y-100166666D01*
X151709523Y-100166666D01*
X151785714Y-100185714D01*
X151823809Y-100204761D01*
X151861904Y-100242857D01*
X151880952Y-100300000D01*
X151880952Y-100395238D01*
X151880952Y-99785714D02*
X151880952Y-100014285D01*
X151880952Y-99900000D02*
X151480952Y-99900000D01*
X151538095Y-99938095D01*
X151576190Y-99976190D01*
X151595238Y-100014285D01*
X148580952Y-100395238D02*
X148180952Y-100395238D01*
X148180952Y-100300000D01*
X148200000Y-100242857D01*
X148238095Y-100204761D01*
X148276190Y-100185714D01*
X148352380Y-100166666D01*
X148409523Y-100166666D01*
X148485714Y-100185714D01*
X148523809Y-100204761D01*
X148561904Y-100242857D01*
X148580952Y-100300000D01*
X148580952Y-100395238D01*
X148219047Y-100014285D02*
X148200000Y-99995238D01*
X148180952Y-99957142D01*
X148180952Y-99861904D01*
X148200000Y-99823809D01*
X148219047Y-99804761D01*
X148257142Y-99785714D01*
X148295238Y-99785714D01*
X148352380Y-99804761D01*
X148580952Y-100033333D01*
X148580952Y-99785714D01*
D10*
X155304761Y-113776190D02*
X155066666Y-113776190D01*
X155042857Y-114014285D01*
X155066666Y-113990476D01*
X155114285Y-113966666D01*
X155233333Y-113966666D01*
X155280952Y-113990476D01*
X155304761Y-114014285D01*
X155328571Y-114061904D01*
X155328571Y-114180952D01*
X155304761Y-114228571D01*
X155280952Y-114252380D01*
X155233333Y-114276190D01*
X155114285Y-114276190D01*
X155066666Y-114252380D01*
X155042857Y-114228571D01*
X155471428Y-113776190D02*
X155638095Y-114276190D01*
X155804761Y-113776190D01*
D13*
X155126190Y-111930952D02*
X155530952Y-111930952D01*
X155578571Y-111907142D01*
X155602380Y-111883333D01*
X155626190Y-111835714D01*
X155626190Y-111740476D01*
X155602380Y-111692857D01*
X155578571Y-111669047D01*
X155530952Y-111645238D01*
X155126190Y-111645238D01*
X155292857Y-111192857D02*
X155626190Y-111192857D01*
X155102380Y-111311904D02*
X155459523Y-111430952D01*
X155459523Y-111121428D01*
D10*
X157871428Y-100126190D02*
X157871428Y-99626190D01*
X157871428Y-99864285D02*
X158157142Y-99864285D01*
X158157142Y-100126190D02*
X158157142Y-99626190D01*
X158585714Y-100102380D02*
X158538095Y-100126190D01*
X158442857Y-100126190D01*
X158395238Y-100102380D01*
X158371428Y-100054761D01*
X158371428Y-99864285D01*
X158395238Y-99816666D01*
X158442857Y-99792857D01*
X158538095Y-99792857D01*
X158585714Y-99816666D01*
X158609523Y-99864285D01*
X158609523Y-99911904D01*
X158371428Y-99959523D01*
X159038095Y-100126190D02*
X159038095Y-99864285D01*
X159014285Y-99816666D01*
X158966666Y-99792857D01*
X158871428Y-99792857D01*
X158823809Y-99816666D01*
X159038095Y-100102380D02*
X158990476Y-100126190D01*
X158871428Y-100126190D01*
X158823809Y-100102380D01*
X158800000Y-100054761D01*
X158800000Y-100007142D01*
X158823809Y-99959523D01*
X158871428Y-99935714D01*
X158990476Y-99935714D01*
X159038095Y-99911904D01*
X159490476Y-100126190D02*
X159490476Y-99626190D01*
X159490476Y-100102380D02*
X159442857Y-100126190D01*
X159347619Y-100126190D01*
X159300000Y-100102380D01*
X159276190Y-100078571D01*
X159252380Y-100030952D01*
X159252380Y-99888095D01*
X159276190Y-99840476D01*
X159300000Y-99816666D01*
X159347619Y-99792857D01*
X159442857Y-99792857D01*
X159490476Y-99816666D01*
X159919047Y-100102380D02*
X159871428Y-100126190D01*
X159776190Y-100126190D01*
X159728571Y-100102380D01*
X159704761Y-100054761D01*
X159704761Y-99864285D01*
X159728571Y-99816666D01*
X159776190Y-99792857D01*
X159871428Y-99792857D01*
X159919047Y-99816666D01*
X159942857Y-99864285D01*
X159942857Y-99911904D01*
X159704761Y-99959523D01*
X160157142Y-100126190D02*
X160157142Y-99792857D01*
X160157142Y-99888095D02*
X160180952Y-99840476D01*
X160204761Y-99816666D01*
X160252380Y-99792857D01*
X160300000Y-99792857D01*
X158776190Y-106206666D02*
X159133333Y-106206666D01*
X159204761Y-106230476D01*
X159252380Y-106278095D01*
X159276190Y-106349523D01*
X159276190Y-106397142D01*
X158776190Y-106016190D02*
X158776190Y-105706666D01*
X158966666Y-105873333D01*
X158966666Y-105801904D01*
X158990476Y-105754285D01*
X159014285Y-105730476D01*
X159061904Y-105706666D01*
X159180952Y-105706666D01*
X159228571Y-105730476D01*
X159252380Y-105754285D01*
X159276190Y-105801904D01*
X159276190Y-105944761D01*
X159252380Y-105992380D01*
X159228571Y-106016190D01*
X168326190Y-107763095D02*
X167826190Y-107763095D01*
X167826190Y-107572619D01*
X167850000Y-107525000D01*
X167873809Y-107501190D01*
X167921428Y-107477380D01*
X167992857Y-107477380D01*
X168040476Y-107501190D01*
X168064285Y-107525000D01*
X168088095Y-107572619D01*
X168088095Y-107763095D01*
X168326190Y-107263095D02*
X167992857Y-107263095D01*
X167826190Y-107263095D02*
X167850000Y-107286904D01*
X167873809Y-107263095D01*
X167850000Y-107239285D01*
X167826190Y-107263095D01*
X167873809Y-107263095D01*
X168302380Y-106810714D02*
X168326190Y-106858333D01*
X168326190Y-106953571D01*
X168302380Y-107001190D01*
X168278571Y-107025000D01*
X168230952Y-107048809D01*
X168088095Y-107048809D01*
X168040476Y-107025000D01*
X168016666Y-107001190D01*
X167992857Y-106953571D01*
X167992857Y-106858333D01*
X168016666Y-106810714D01*
X168326190Y-106525000D02*
X168302380Y-106572619D01*
X168278571Y-106596428D01*
X168230952Y-106620238D01*
X168088095Y-106620238D01*
X168040476Y-106596428D01*
X168016666Y-106572619D01*
X167992857Y-106525000D01*
X167992857Y-106453571D01*
X168016666Y-106405952D01*
X168040476Y-106382142D01*
X168088095Y-106358333D01*
X168230952Y-106358333D01*
X168278571Y-106382142D01*
X168302380Y-106405952D01*
X168326190Y-106453571D01*
X168326190Y-106525000D01*
X168064285Y-105977380D02*
X168088095Y-105905952D01*
X168111904Y-105882142D01*
X168159523Y-105858333D01*
X168230952Y-105858333D01*
X168278571Y-105882142D01*
X168302380Y-105905952D01*
X168326190Y-105953571D01*
X168326190Y-106144047D01*
X167826190Y-106144047D01*
X167826190Y-105977380D01*
X167850000Y-105929761D01*
X167873809Y-105905952D01*
X167921428Y-105882142D01*
X167969047Y-105882142D01*
X168016666Y-105905952D01*
X168040476Y-105929761D01*
X168064285Y-105977380D01*
X168064285Y-106144047D01*
X168326190Y-105572619D02*
X168302380Y-105620238D01*
X168254761Y-105644047D01*
X167826190Y-105644047D01*
X168326190Y-105167857D02*
X168064285Y-105167857D01*
X168016666Y-105191666D01*
X167992857Y-105239285D01*
X167992857Y-105334523D01*
X168016666Y-105382142D01*
X168302380Y-105167857D02*
X168326190Y-105215476D01*
X168326190Y-105334523D01*
X168302380Y-105382142D01*
X168254761Y-105405952D01*
X168207142Y-105405952D01*
X168159523Y-105382142D01*
X168135714Y-105334523D01*
X168135714Y-105215476D01*
X168111904Y-105167857D01*
X168326190Y-104715476D02*
X167826190Y-104715476D01*
X168302380Y-104715476D02*
X168326190Y-104763095D01*
X168326190Y-104858333D01*
X168302380Y-104905952D01*
X168278571Y-104929761D01*
X168230952Y-104953571D01*
X168088095Y-104953571D01*
X168040476Y-104929761D01*
X168016666Y-104905952D01*
X167992857Y-104858333D01*
X167992857Y-104763095D01*
X168016666Y-104715476D01*
X168302380Y-104286904D02*
X168326190Y-104334523D01*
X168326190Y-104429761D01*
X168302380Y-104477380D01*
X168254761Y-104501190D01*
X168064285Y-104501190D01*
X168016666Y-104477380D01*
X167992857Y-104429761D01*
X167992857Y-104334523D01*
X168016666Y-104286904D01*
X168064285Y-104263095D01*
X168111904Y-104263095D01*
X168159523Y-104501190D01*
X165926190Y-106191666D02*
X166283333Y-106191666D01*
X166354761Y-106215476D01*
X166402380Y-106263095D01*
X166426190Y-106334523D01*
X166426190Y-106382142D01*
X166092857Y-105739285D02*
X166426190Y-105739285D01*
X165902380Y-105858333D02*
X166259523Y-105977380D01*
X166259523Y-105667857D01*
X154556190Y-111897619D02*
X154556190Y-112183333D01*
X154556190Y-112040476D02*
X154056190Y-112040476D01*
X154127619Y-112088095D01*
X154175238Y-112135714D01*
X154199047Y-112183333D01*
X154222857Y-111469047D02*
X154556190Y-111469047D01*
X154222857Y-111683333D02*
X154484761Y-111683333D01*
X154532380Y-111659523D01*
X154556190Y-111611904D01*
X154556190Y-111540476D01*
X154532380Y-111492857D01*
X154508571Y-111469047D01*
X154294285Y-111064285D02*
X154294285Y-111230952D01*
X154556190Y-111230952D02*
X154056190Y-111230952D01*
X154056190Y-110992857D01*
D12*
X153042857Y-111666666D02*
X153061904Y-111685714D01*
X153080952Y-111742857D01*
X153080952Y-111780952D01*
X153061904Y-111838095D01*
X153023809Y-111876190D01*
X152985714Y-111895238D01*
X152909523Y-111914285D01*
X152852380Y-111914285D01*
X152776190Y-111895238D01*
X152738095Y-111876190D01*
X152700000Y-111838095D01*
X152680952Y-111780952D01*
X152680952Y-111742857D01*
X152700000Y-111685714D01*
X152719047Y-111666666D01*
X152719047Y-111514285D02*
X152700000Y-111495238D01*
X152680952Y-111457142D01*
X152680952Y-111361904D01*
X152700000Y-111323809D01*
X152719047Y-111304761D01*
X152757142Y-111285714D01*
X152795238Y-111285714D01*
X152852380Y-111304761D01*
X153080952Y-111533333D01*
X153080952Y-111285714D01*
D10*
X137610476Y-103588095D02*
X137586666Y-103635714D01*
X137562857Y-103659523D01*
X137515238Y-103683333D01*
X137491428Y-103683333D01*
X137443809Y-103659523D01*
X137420000Y-103635714D01*
X137396190Y-103588095D01*
X137396190Y-103492857D01*
X137420000Y-103445238D01*
X137443809Y-103421428D01*
X137491428Y-103397619D01*
X137515238Y-103397619D01*
X137562857Y-103421428D01*
X137586666Y-103445238D01*
X137610476Y-103492857D01*
X137610476Y-103588095D01*
X137634285Y-103635714D01*
X137658095Y-103659523D01*
X137705714Y-103683333D01*
X137800952Y-103683333D01*
X137848571Y-103659523D01*
X137872380Y-103635714D01*
X137896190Y-103588095D01*
X137896190Y-103492857D01*
X137872380Y-103445238D01*
X137848571Y-103421428D01*
X137800952Y-103397619D01*
X137705714Y-103397619D01*
X137658095Y-103421428D01*
X137634285Y-103445238D01*
X137610476Y-103492857D01*
X137562857Y-103183333D02*
X138062857Y-103183333D01*
X137586666Y-103183333D02*
X137562857Y-103135714D01*
X137562857Y-103040476D01*
X137586666Y-102992857D01*
X137610476Y-102969047D01*
X137658095Y-102945238D01*
X137800952Y-102945238D01*
X137848571Y-102969047D01*
X137872380Y-102992857D01*
X137896190Y-103040476D01*
X137896190Y-103135714D01*
X137872380Y-103183333D01*
X137634285Y-102564285D02*
X137634285Y-102730952D01*
X137896190Y-102730952D02*
X137396190Y-102730952D01*
X137396190Y-102492857D01*
D12*
X139242857Y-103166666D02*
X139261904Y-103185714D01*
X139280952Y-103242857D01*
X139280952Y-103280952D01*
X139261904Y-103338095D01*
X139223809Y-103376190D01*
X139185714Y-103395238D01*
X139109523Y-103414285D01*
X139052380Y-103414285D01*
X138976190Y-103395238D01*
X138938095Y-103376190D01*
X138900000Y-103338095D01*
X138880952Y-103280952D01*
X138880952Y-103242857D01*
X138900000Y-103185714D01*
X138919047Y-103166666D01*
X138880952Y-103033333D02*
X138880952Y-102785714D01*
X139033333Y-102919047D01*
X139033333Y-102861904D01*
X139052380Y-102823809D01*
X139071428Y-102804761D01*
X139109523Y-102785714D01*
X139204761Y-102785714D01*
X139242857Y-102804761D01*
X139261904Y-102823809D01*
X139280952Y-102861904D01*
X139280952Y-102976190D01*
X139261904Y-103014285D01*
X139242857Y-103033333D01*
D10*
X155376190Y-104256190D02*
X155090476Y-104256190D01*
X155233333Y-104256190D02*
X155233333Y-103756190D01*
X155185714Y-103827619D01*
X155138095Y-103875238D01*
X155090476Y-103899047D01*
X155685714Y-103756190D02*
X155733333Y-103756190D01*
X155780952Y-103780000D01*
X155804761Y-103803809D01*
X155828571Y-103851428D01*
X155852380Y-103946666D01*
X155852380Y-104065714D01*
X155828571Y-104160952D01*
X155804761Y-104208571D01*
X155780952Y-104232380D01*
X155733333Y-104256190D01*
X155685714Y-104256190D01*
X155638095Y-104232380D01*
X155614285Y-104208571D01*
X155590476Y-104160952D01*
X155566666Y-104065714D01*
X155566666Y-103946666D01*
X155590476Y-103851428D01*
X155614285Y-103803809D01*
X155638095Y-103780000D01*
X155685714Y-103756190D01*
X156161904Y-103756190D02*
X156209523Y-103756190D01*
X156257142Y-103780000D01*
X156280952Y-103803809D01*
X156304761Y-103851428D01*
X156328571Y-103946666D01*
X156328571Y-104065714D01*
X156304761Y-104160952D01*
X156280952Y-104208571D01*
X156257142Y-104232380D01*
X156209523Y-104256190D01*
X156161904Y-104256190D01*
X156114285Y-104232380D01*
X156090476Y-104208571D01*
X156066666Y-104160952D01*
X156042857Y-104065714D01*
X156042857Y-103946666D01*
X156066666Y-103851428D01*
X156090476Y-103803809D01*
X156114285Y-103780000D01*
X156161904Y-103756190D01*
X156542857Y-103922857D02*
X156542857Y-104256190D01*
X156542857Y-103970476D02*
X156566666Y-103946666D01*
X156614285Y-103922857D01*
X156685714Y-103922857D01*
X156733333Y-103946666D01*
X156757142Y-103994285D01*
X156757142Y-104256190D01*
X157161904Y-103994285D02*
X156995238Y-103994285D01*
X156995238Y-104256190D02*
X156995238Y-103756190D01*
X157233333Y-103756190D01*
D12*
X156083333Y-102742857D02*
X156064285Y-102761904D01*
X156007142Y-102780952D01*
X155969047Y-102780952D01*
X155911904Y-102761904D01*
X155873809Y-102723809D01*
X155854761Y-102685714D01*
X155835714Y-102609523D01*
X155835714Y-102552380D01*
X155854761Y-102476190D01*
X155873809Y-102438095D01*
X155911904Y-102400000D01*
X155969047Y-102380952D01*
X156007142Y-102380952D01*
X156064285Y-102400000D01*
X156083333Y-102419047D01*
X156445238Y-102380952D02*
X156254761Y-102380952D01*
X156235714Y-102571428D01*
X156254761Y-102552380D01*
X156292857Y-102533333D01*
X156388095Y-102533333D01*
X156426190Y-102552380D01*
X156445238Y-102571428D01*
X156464285Y-102609523D01*
X156464285Y-102704761D01*
X156445238Y-102742857D01*
X156426190Y-102761904D01*
X156388095Y-102780952D01*
X156292857Y-102780952D01*
X156254761Y-102761904D01*
X156235714Y-102742857D01*
D10*
X138796190Y-107773809D02*
X138796190Y-108059523D01*
X138796190Y-107916666D02*
X138296190Y-107916666D01*
X138367619Y-107964285D01*
X138415238Y-108011904D01*
X138439047Y-108059523D01*
X138296190Y-107464285D02*
X138296190Y-107416666D01*
X138320000Y-107369047D01*
X138343809Y-107345238D01*
X138391428Y-107321428D01*
X138486666Y-107297619D01*
X138605714Y-107297619D01*
X138700952Y-107321428D01*
X138748571Y-107345238D01*
X138772380Y-107369047D01*
X138796190Y-107416666D01*
X138796190Y-107464285D01*
X138772380Y-107511904D01*
X138748571Y-107535714D01*
X138700952Y-107559523D01*
X138605714Y-107583333D01*
X138486666Y-107583333D01*
X138391428Y-107559523D01*
X138343809Y-107535714D01*
X138320000Y-107511904D01*
X138296190Y-107464285D01*
X138296190Y-106988095D02*
X138296190Y-106940476D01*
X138320000Y-106892857D01*
X138343809Y-106869047D01*
X138391428Y-106845238D01*
X138486666Y-106821428D01*
X138605714Y-106821428D01*
X138700952Y-106845238D01*
X138748571Y-106869047D01*
X138772380Y-106892857D01*
X138796190Y-106940476D01*
X138796190Y-106988095D01*
X138772380Y-107035714D01*
X138748571Y-107059523D01*
X138700952Y-107083333D01*
X138605714Y-107107142D01*
X138486666Y-107107142D01*
X138391428Y-107083333D01*
X138343809Y-107059523D01*
X138320000Y-107035714D01*
X138296190Y-106988095D01*
X138462857Y-106607142D02*
X138796190Y-106607142D01*
X138510476Y-106607142D02*
X138486666Y-106583333D01*
X138462857Y-106535714D01*
X138462857Y-106464285D01*
X138486666Y-106416666D01*
X138534285Y-106392857D01*
X138796190Y-106392857D01*
X138534285Y-105988095D02*
X138534285Y-106154761D01*
X138796190Y-106154761D02*
X138296190Y-106154761D01*
X138296190Y-105916666D01*
D12*
X140142857Y-107066666D02*
X140161904Y-107085714D01*
X140180952Y-107142857D01*
X140180952Y-107180952D01*
X140161904Y-107238095D01*
X140123809Y-107276190D01*
X140085714Y-107295238D01*
X140009523Y-107314285D01*
X139952380Y-107314285D01*
X139876190Y-107295238D01*
X139838095Y-107276190D01*
X139800000Y-107238095D01*
X139780952Y-107180952D01*
X139780952Y-107142857D01*
X139800000Y-107085714D01*
X139819047Y-107066666D01*
X139780952Y-106723809D02*
X139780952Y-106800000D01*
X139800000Y-106838095D01*
X139819047Y-106857142D01*
X139876190Y-106895238D01*
X139952380Y-106914285D01*
X140104761Y-106914285D01*
X140142857Y-106895238D01*
X140161904Y-106876190D01*
X140180952Y-106838095D01*
X140180952Y-106761904D01*
X140161904Y-106723809D01*
X140142857Y-106704761D01*
X140104761Y-106685714D01*
X140009523Y-106685714D01*
X139971428Y-106704761D01*
X139952380Y-106723809D01*
X139933333Y-106761904D01*
X139933333Y-106838095D01*
X139952380Y-106876190D01*
X139971428Y-106895238D01*
X140009523Y-106914285D01*
D10*
X158216666Y-101256190D02*
X157930952Y-101256190D01*
X158073809Y-101256190D02*
X158073809Y-100756190D01*
X158026190Y-100827619D01*
X157978571Y-100875238D01*
X157930952Y-100899047D01*
X158407142Y-100803809D02*
X158430952Y-100780000D01*
X158478571Y-100756190D01*
X158597619Y-100756190D01*
X158645238Y-100780000D01*
X158669047Y-100803809D01*
X158692857Y-100851428D01*
X158692857Y-100899047D01*
X158669047Y-100970476D01*
X158383333Y-101256190D01*
X158692857Y-101256190D01*
X159002380Y-100756190D02*
X159050000Y-100756190D01*
X159097619Y-100780000D01*
X159121428Y-100803809D01*
X159145238Y-100851428D01*
X159169047Y-100946666D01*
X159169047Y-101065714D01*
X159145238Y-101160952D01*
X159121428Y-101208571D01*
X159097619Y-101232380D01*
X159050000Y-101256190D01*
X159002380Y-101256190D01*
X158954761Y-101232380D01*
X158930952Y-101208571D01*
X158907142Y-101160952D01*
X158883333Y-101065714D01*
X158883333Y-100946666D01*
X158907142Y-100851428D01*
X158930952Y-100803809D01*
X158954761Y-100780000D01*
X159002380Y-100756190D01*
X159669047Y-101256190D02*
X159502380Y-101018095D01*
X159383333Y-101256190D02*
X159383333Y-100756190D01*
X159573809Y-100756190D01*
X159621428Y-100780000D01*
X159645238Y-100803809D01*
X159669047Y-100851428D01*
X159669047Y-100922857D01*
X159645238Y-100970476D01*
X159621428Y-100994285D01*
X159573809Y-101018095D01*
X159383333Y-101018095D01*
D12*
X158733333Y-99780952D02*
X158600000Y-99590476D01*
X158504761Y-99780952D02*
X158504761Y-99380952D01*
X158657142Y-99380952D01*
X158695238Y-99400000D01*
X158714285Y-99419047D01*
X158733333Y-99457142D01*
X158733333Y-99514285D01*
X158714285Y-99552380D01*
X158695238Y-99571428D01*
X158657142Y-99590476D01*
X158504761Y-99590476D01*
X159114285Y-99780952D02*
X158885714Y-99780952D01*
X159000000Y-99780952D02*
X159000000Y-99380952D01*
X158961904Y-99438095D01*
X158923809Y-99476190D01*
X158885714Y-99495238D01*
D10*
X152826190Y-100896190D02*
X152873809Y-100896190D01*
X152921428Y-100920000D01*
X152945238Y-100943809D01*
X152969047Y-100991428D01*
X152992857Y-101086666D01*
X152992857Y-101205714D01*
X152969047Y-101300952D01*
X152945238Y-101348571D01*
X152921428Y-101372380D01*
X152873809Y-101396190D01*
X152826190Y-101396190D01*
X152778571Y-101372380D01*
X152754761Y-101348571D01*
X152730952Y-101300952D01*
X152707142Y-101205714D01*
X152707142Y-101086666D01*
X152730952Y-100991428D01*
X152754761Y-100943809D01*
X152778571Y-100920000D01*
X152826190Y-100896190D01*
X153492857Y-101396190D02*
X153326190Y-101158095D01*
X153207142Y-101396190D02*
X153207142Y-100896190D01*
X153397619Y-100896190D01*
X153445238Y-100920000D01*
X153469047Y-100943809D01*
X153492857Y-100991428D01*
X153492857Y-101062857D01*
X153469047Y-101110476D01*
X153445238Y-101134285D01*
X153397619Y-101158095D01*
X153207142Y-101158095D01*
D12*
X153033333Y-102780952D02*
X152900000Y-102590476D01*
X152804761Y-102780952D02*
X152804761Y-102380952D01*
X152957142Y-102380952D01*
X152995238Y-102400000D01*
X153014285Y-102419047D01*
X153033333Y-102457142D01*
X153033333Y-102514285D01*
X153014285Y-102552380D01*
X152995238Y-102571428D01*
X152957142Y-102590476D01*
X152804761Y-102590476D01*
X153185714Y-102419047D02*
X153204761Y-102400000D01*
X153242857Y-102380952D01*
X153338095Y-102380952D01*
X153376190Y-102400000D01*
X153395238Y-102419047D01*
X153414285Y-102457142D01*
X153414285Y-102495238D01*
X153395238Y-102552380D01*
X153166666Y-102780952D01*
X153414285Y-102780952D01*
D10*
X145596190Y-100159523D02*
X145596190Y-100445238D01*
X145596190Y-100302380D02*
X145096190Y-100302380D01*
X145167619Y-100350000D01*
X145215238Y-100397619D01*
X145239047Y-100445238D01*
X145596190Y-99945238D02*
X145096190Y-99945238D01*
X145405714Y-99897619D02*
X145596190Y-99754761D01*
X145262857Y-99754761D02*
X145453333Y-99945238D01*
D12*
X146980952Y-100166666D02*
X146790476Y-100300000D01*
X146980952Y-100395238D02*
X146580952Y-100395238D01*
X146580952Y-100242857D01*
X146600000Y-100204761D01*
X146619047Y-100185714D01*
X146657142Y-100166666D01*
X146714285Y-100166666D01*
X146752380Y-100185714D01*
X146771428Y-100204761D01*
X146790476Y-100242857D01*
X146790476Y-100395238D01*
X146714285Y-99823809D02*
X146980952Y-99823809D01*
X146561904Y-99919047D02*
X146847619Y-100014285D01*
X146847619Y-99766666D01*
D10*
X133262857Y-104845238D02*
X133596190Y-104845238D01*
X133072380Y-104964285D02*
X133429523Y-105083333D01*
X133429523Y-104773809D01*
X133596190Y-104583333D02*
X133096190Y-104583333D01*
X133405714Y-104535714D02*
X133596190Y-104392857D01*
X133262857Y-104392857D02*
X133453333Y-104583333D01*
X133096190Y-104226190D02*
X133096190Y-103892857D01*
X133596190Y-104107142D01*
D12*
X134980952Y-104566666D02*
X134790476Y-104700000D01*
X134980952Y-104795238D02*
X134580952Y-104795238D01*
X134580952Y-104642857D01*
X134600000Y-104604761D01*
X134619047Y-104585714D01*
X134657142Y-104566666D01*
X134714285Y-104566666D01*
X134752380Y-104585714D01*
X134771428Y-104604761D01*
X134790476Y-104642857D01*
X134790476Y-104795238D01*
X134580952Y-104223809D02*
X134580952Y-104300000D01*
X134600000Y-104338095D01*
X134619047Y-104357142D01*
X134676190Y-104395238D01*
X134752380Y-104414285D01*
X134904761Y-104414285D01*
X134942857Y-104395238D01*
X134961904Y-104376190D01*
X134980952Y-104338095D01*
X134980952Y-104261904D01*
X134961904Y-104223809D01*
X134942857Y-104204761D01*
X134904761Y-104185714D01*
X134809523Y-104185714D01*
X134771428Y-104204761D01*
X134752380Y-104223809D01*
X134733333Y-104261904D01*
X134733333Y-104338095D01*
X134752380Y-104376190D01*
X134771428Y-104395238D01*
X134809523Y-104414285D01*
D10*
X134862857Y-105945238D02*
X135196190Y-105945238D01*
X134672380Y-106064285D02*
X135029523Y-106183333D01*
X135029523Y-105873809D01*
X135196190Y-105683333D02*
X134696190Y-105683333D01*
X135005714Y-105635714D02*
X135196190Y-105492857D01*
X134862857Y-105492857D02*
X135053333Y-105683333D01*
X134696190Y-105326190D02*
X134696190Y-104992857D01*
X135196190Y-105207142D01*
D12*
X136580952Y-105666666D02*
X136390476Y-105800000D01*
X136580952Y-105895238D02*
X136180952Y-105895238D01*
X136180952Y-105742857D01*
X136200000Y-105704761D01*
X136219047Y-105685714D01*
X136257142Y-105666666D01*
X136314285Y-105666666D01*
X136352380Y-105685714D01*
X136371428Y-105704761D01*
X136390476Y-105742857D01*
X136390476Y-105895238D01*
X136180952Y-105533333D02*
X136180952Y-105266666D01*
X136580952Y-105438095D01*
D11*
X140309523Y-105902380D02*
X139738095Y-105902380D01*
X140023809Y-105902380D02*
X140023809Y-104902380D01*
X139928571Y-105045238D01*
X139833333Y-105140476D01*
X139738095Y-105188095D01*
X141166666Y-104902380D02*
X140976190Y-104902380D01*
X140880952Y-104950000D01*
X140833333Y-104997619D01*
X140738095Y-105140476D01*
X140690476Y-105330952D01*
X140690476Y-105711904D01*
X140738095Y-105807142D01*
X140785714Y-105854761D01*
X140880952Y-105902380D01*
X141071428Y-105902380D01*
X141166666Y-105854761D01*
X141214285Y-105807142D01*
X141261904Y-105711904D01*
X141261904Y-105473809D01*
X141214285Y-105378571D01*
X141166666Y-105330952D01*
X141071428Y-105283333D01*
X140880952Y-105283333D01*
X140785714Y-105330952D01*
X140738095Y-105378571D01*
X140690476Y-105473809D01*
X141690476Y-105902380D02*
X141690476Y-104902380D01*
X142023809Y-105616666D01*
X142357142Y-104902380D01*
X142357142Y-105902380D01*
X142833333Y-105902380D02*
X142833333Y-104902380D01*
X142833333Y-105378571D02*
X143404761Y-105378571D01*
X143404761Y-105902380D02*
X143404761Y-104902380D01*
X143785714Y-105235714D02*
X144309523Y-105235714D01*
X143785714Y-105902380D01*
X144309523Y-105902380D01*
D14*
X141666666Y-102983333D02*
X141666666Y-103316666D01*
X141433333Y-102616666D02*
X141666666Y-102983333D01*
X141900000Y-102616666D01*
X142500000Y-103316666D02*
X142100000Y-103316666D01*
X142300000Y-103316666D02*
X142300000Y-102616666D01*
X142233333Y-102716666D01*
X142166666Y-102783333D01*
X142100000Y-102816666D01*
D11*
X150322380Y-112933333D02*
X149322380Y-112933333D01*
X149322380Y-112552380D01*
X149370000Y-112457142D01*
X149417619Y-112409523D01*
X149512857Y-112361904D01*
X149655714Y-112361904D01*
X149750952Y-112409523D01*
X149798571Y-112457142D01*
X149846190Y-112552380D01*
X149846190Y-112933333D01*
X149322380Y-112028571D02*
X150322380Y-111790476D01*
X149608095Y-111600000D01*
X150322380Y-111409523D01*
X149322380Y-111171428D01*
X150322380Y-110219047D02*
X149846190Y-110552380D01*
X150322380Y-110790476D02*
X149322380Y-110790476D01*
X149322380Y-110409523D01*
X149370000Y-110314285D01*
X149417619Y-110266666D01*
X149512857Y-110219047D01*
X149655714Y-110219047D01*
X149750952Y-110266666D01*
X149798571Y-110314285D01*
X149846190Y-110409523D01*
X149846190Y-110790476D01*
D12*
X151480952Y-111895238D02*
X151080952Y-111895238D01*
X151080952Y-111800000D01*
X151100000Y-111742857D01*
X151138095Y-111704761D01*
X151176190Y-111685714D01*
X151252380Y-111666666D01*
X151309523Y-111666666D01*
X151385714Y-111685714D01*
X151423809Y-111704761D01*
X151461904Y-111742857D01*
X151480952Y-111800000D01*
X151480952Y-111895238D01*
X151080952Y-111533333D02*
X151080952Y-111285714D01*
X151233333Y-111419047D01*
X151233333Y-111361904D01*
X151252380Y-111323809D01*
X151271428Y-111304761D01*
X151309523Y-111285714D01*
X151404761Y-111285714D01*
X151442857Y-111304761D01*
X151461904Y-111323809D01*
X151480952Y-111361904D01*
X151480952Y-111476190D01*
X151461904Y-111514285D01*
X151442857Y-111533333D01*
D11*
X151582380Y-111781547D02*
X151582380Y-112352976D01*
X151582380Y-112067261D02*
X150582380Y-112067261D01*
X150725238Y-112162500D01*
X150820476Y-112257738D01*
X150868095Y-112352976D01*
X151582380Y-111352976D02*
X150582380Y-111352976D01*
X151201428Y-111257738D02*
X151582380Y-110972023D01*
X150915714Y-110972023D02*
X151296666Y-111352976D01*
D12*
X149880952Y-111729166D02*
X149690476Y-111862500D01*
X149880952Y-111957738D02*
X149480952Y-111957738D01*
X149480952Y-111805357D01*
X149500000Y-111767261D01*
X149519047Y-111748214D01*
X149557142Y-111729166D01*
X149614285Y-111729166D01*
X149652380Y-111748214D01*
X149671428Y-111767261D01*
X149690476Y-111805357D01*
X149690476Y-111957738D01*
X149480952Y-111367261D02*
X149480952Y-111557738D01*
X149671428Y-111576785D01*
X149652380Y-111557738D01*
X149633333Y-111519642D01*
X149633333Y-111424404D01*
X149652380Y-111386309D01*
X149671428Y-111367261D01*
X149709523Y-111348214D01*
X149804761Y-111348214D01*
X149842857Y-111367261D01*
X149861904Y-111386309D01*
X149880952Y-111424404D01*
X149880952Y-111519642D01*
X149861904Y-111557738D01*
X149842857Y-111576785D01*
D11*
X148280952Y-112947380D02*
X147709523Y-112947380D01*
X147995238Y-112947380D02*
X147995238Y-111947380D01*
X147900000Y-112090238D01*
X147804761Y-112185476D01*
X147709523Y-112233095D01*
X148709523Y-112947380D02*
X148709523Y-111947380D01*
X148804761Y-112566428D02*
X149090476Y-112947380D01*
X149090476Y-112280714D02*
X148709523Y-112661666D01*
D12*
X148333333Y-114105952D02*
X148200000Y-113915476D01*
X148104761Y-114105952D02*
X148104761Y-113705952D01*
X148257142Y-113705952D01*
X148295238Y-113725000D01*
X148314285Y-113744047D01*
X148333333Y-113782142D01*
X148333333Y-113839285D01*
X148314285Y-113877380D01*
X148295238Y-113896428D01*
X148257142Y-113915476D01*
X148104761Y-113915476D01*
X148561904Y-113877380D02*
X148523809Y-113858333D01*
X148504761Y-113839285D01*
X148485714Y-113801190D01*
X148485714Y-113782142D01*
X148504761Y-113744047D01*
X148523809Y-113725000D01*
X148561904Y-113705952D01*
X148638095Y-113705952D01*
X148676190Y-113725000D01*
X148695238Y-113744047D01*
X148714285Y-113782142D01*
X148714285Y-113801190D01*
X148695238Y-113839285D01*
X148676190Y-113858333D01*
X148638095Y-113877380D01*
X148561904Y-113877380D01*
X148523809Y-113896428D01*
X148504761Y-113915476D01*
X148485714Y-113953571D01*
X148485714Y-114029761D01*
X148504761Y-114067857D01*
X148523809Y-114086904D01*
X148561904Y-114105952D01*
X148638095Y-114105952D01*
X148676190Y-114086904D01*
X148695238Y-114067857D01*
X148714285Y-114029761D01*
X148714285Y-113953571D01*
X148695238Y-113915476D01*
X148676190Y-113896428D01*
X148638095Y-113877380D01*
D11*
X155430952Y-113690714D02*
X155430952Y-114357380D01*
X155192857Y-113309761D02*
X154954761Y-114024047D01*
X155573809Y-114024047D01*
X156145238Y-113357380D02*
X156240476Y-113357380D01*
X156335714Y-113405000D01*
X156383333Y-113452619D01*
X156430952Y-113547857D01*
X156478571Y-113738333D01*
X156478571Y-113976428D01*
X156430952Y-114166904D01*
X156383333Y-114262142D01*
X156335714Y-114309761D01*
X156240476Y-114357380D01*
X156145238Y-114357380D01*
X156050000Y-114309761D01*
X156002380Y-114262142D01*
X155954761Y-114166904D01*
X155907142Y-113976428D01*
X155907142Y-113738333D01*
X155954761Y-113547857D01*
X156002380Y-113452619D01*
X156050000Y-113405000D01*
X156145238Y-113357380D01*
X156764285Y-113357380D02*
X157097619Y-114357380D01*
X157430952Y-113357380D01*
X158478571Y-113452619D02*
X158526190Y-113405000D01*
X158621428Y-113357380D01*
X158859523Y-113357380D01*
X158954761Y-113405000D01*
X159002380Y-113452619D01*
X159050000Y-113547857D01*
X159050000Y-113643095D01*
X159002380Y-113785952D01*
X158430952Y-114357380D01*
X159050000Y-114357380D01*
X159669047Y-113357380D02*
X159764285Y-113357380D01*
X159859523Y-113405000D01*
X159907142Y-113452619D01*
X159954761Y-113547857D01*
X160002380Y-113738333D01*
X160002380Y-113976428D01*
X159954761Y-114166904D01*
X159907142Y-114262142D01*
X159859523Y-114309761D01*
X159764285Y-114357380D01*
X159669047Y-114357380D01*
X159573809Y-114309761D01*
X159526190Y-114262142D01*
X159478571Y-114166904D01*
X159430952Y-113976428D01*
X159430952Y-113738333D01*
X159478571Y-113547857D01*
X159526190Y-113452619D01*
X159573809Y-113405000D01*
X159669047Y-113357380D01*
X160621428Y-113357380D02*
X160716666Y-113357380D01*
X160811904Y-113405000D01*
X160859523Y-113452619D01*
X160907142Y-113547857D01*
X160954761Y-113738333D01*
X160954761Y-113976428D01*
X160907142Y-114166904D01*
X160859523Y-114262142D01*
X160811904Y-114309761D01*
X160716666Y-114357380D01*
X160621428Y-114357380D01*
X160526190Y-114309761D01*
X160478571Y-114262142D01*
X160430952Y-114166904D01*
X160383333Y-113976428D01*
X160383333Y-113738333D01*
X160430952Y-113547857D01*
X160478571Y-113452619D01*
X160526190Y-113405000D01*
X160621428Y-113357380D01*
X161383333Y-114357380D02*
X161383333Y-113690714D01*
X161383333Y-113785952D02*
X161430952Y-113738333D01*
X161526190Y-113690714D01*
X161669047Y-113690714D01*
X161764285Y-113738333D01*
X161811904Y-113833571D01*
X161811904Y-114357380D01*
X161811904Y-113833571D02*
X161859523Y-113738333D01*
X161954761Y-113690714D01*
X162097619Y-113690714D01*
X162192857Y-113738333D01*
X162240476Y-113833571D01*
X162240476Y-114357380D01*
X162669047Y-114071666D02*
X163145238Y-114071666D01*
X162573809Y-114357380D02*
X162907142Y-113357380D01*
X163240476Y-114357380D01*
D12*
X158754761Y-112655952D02*
X158754761Y-112255952D01*
X158850000Y-112255952D01*
X158907142Y-112275000D01*
X158945238Y-112313095D01*
X158964285Y-112351190D01*
X158983333Y-112427380D01*
X158983333Y-112484523D01*
X158964285Y-112560714D01*
X158945238Y-112598809D01*
X158907142Y-112636904D01*
X158850000Y-112655952D01*
X158754761Y-112655952D01*
X159326190Y-112389285D02*
X159326190Y-112655952D01*
X159230952Y-112236904D02*
X159135714Y-112522619D01*
X159383333Y-112522619D01*
M02*
