M48
; DRILL file {KiCad (5.1.5-0-10_14)} date 2020 February 04, Tuesday 14:09:29
; FORMAT={-:-/ absolute / inch / decimal}
; #@! TF.CreationDate,2020-02-04T14:09:29+01:00
; #@! TF.GenerationSoftware,Kicad,Pcbnew,(5.1.5-0-10_14)
; #@! TF.FileFunction,Plated,1,2,PTH
FMAT,2
INCH
T1C0.0118
T2C0.0394
%
G90
G05
T1
X4.8071Y-4.3652
X5.1102Y-3.7844
X5.1693Y-4.2333
X5.2087Y-4.3465
X5.2598Y-4.0827
X5.2717Y-4.1457
X5.4077Y-4.1947
X5.4665Y-4.4715
X5.5709Y-3.8661
X5.622Y-4.3543
X5.7165Y-3.8465
X5.7362Y-3.9724
X5.748Y-4.3504
X5.7707Y-4.4951
X5.7756Y-4.122
X5.8252Y-4.0118
X5.8307Y-4.4094
X5.8563Y-4.2724
X5.874Y-4.1024
X5.878Y-4.2008
X5.8858Y-4.0118
X5.9567Y-4.4606
X6.0472Y-3.9646
X6.0516Y-4.2484
X6.0531Y-4.1988
X6.0591Y-3.9045
X6.1555Y-4.4931
X6.3268Y-3.9213
T2
X6.2618Y-4.0248
X6.2618Y-4.1248
X6.2618Y-4.2248
X6.2618Y-4.3248
X4.8248Y-4.5744
X4.9248Y-4.5744
X5.0248Y-4.5744
X5.1248Y-4.5744
X5.2248Y-4.5744
X5.3248Y-4.5744
X5.4248Y-4.5744
X5.5248Y-4.5744
X5.6248Y-4.5744
X5.7248Y-4.5744
X5.8248Y-4.5744
X5.9248Y-4.5744
X6.0248Y-4.5744
X6.1248Y-4.5744
X6.2248Y-4.5744
X6.3248Y-4.5744
X5.2248Y-3.7744
X5.3248Y-3.7744
X5.4248Y-3.7744
X5.5248Y-3.7744
X5.6248Y-3.7744
X5.7248Y-3.7744
X5.8248Y-3.7744
X5.9248Y-3.7744
X6.0248Y-3.7744
X6.1248Y-3.7744
X6.2248Y-3.7744
X6.3248Y-3.7744
T0
M30
