G04 #@! TF.GenerationSoftware,KiCad,Pcbnew,(5.1.5-0-10_14)*
G04 #@! TF.CreationDate,2020-02-04T10:15:42+01:00*
G04 #@! TF.ProjectId,FeatherCAN,46656174-6865-4724-9341-4e2e6b696361,1.0*
G04 #@! TF.SameCoordinates,Original*
G04 #@! TF.FileFunction,Other,Fab,Bot*
%FSLAX46Y46*%
G04 Gerber Fmt 4.6, Leading zero omitted, Abs format (unit mm)*
G04 Created by KiCad (PCBNEW (5.1.5-0-10_14)) date 2020-02-04 10:15:42*
%MOMM*%
%LPD*%
G04 APERTURE LIST*
%ADD10C,0.100000*%
%ADD11C,0.150000*%
G04 APERTURE END LIST*
D10*
X161920000Y-96505000D02*
X161920000Y-94600000D01*
X161920000Y-94600000D02*
X131440000Y-94600000D01*
X131440000Y-94600000D02*
X131440000Y-97140000D01*
X131440000Y-97140000D02*
X161285000Y-97140000D01*
X161285000Y-97140000D02*
X161920000Y-96505000D01*
X161920000Y-116825000D02*
X161920000Y-114920000D01*
X161920000Y-114920000D02*
X121280000Y-114920000D01*
X121280000Y-114920000D02*
X121280000Y-117460000D01*
X121280000Y-117460000D02*
X161285000Y-117460000D01*
X161285000Y-117460000D02*
X161920000Y-116825000D01*
X130344285Y-93584285D02*
X130344285Y-93417619D01*
X130606190Y-93417619D02*
X130106190Y-93417619D01*
X130106190Y-93655714D01*
X130582380Y-94036666D02*
X130606190Y-93989047D01*
X130606190Y-93893809D01*
X130582380Y-93846190D01*
X130534761Y-93822380D01*
X130344285Y-93822380D01*
X130296666Y-93846190D01*
X130272857Y-93893809D01*
X130272857Y-93989047D01*
X130296666Y-94036666D01*
X130344285Y-94060476D01*
X130391904Y-94060476D01*
X130439523Y-93822380D01*
X130606190Y-94489047D02*
X130344285Y-94489047D01*
X130296666Y-94465238D01*
X130272857Y-94417619D01*
X130272857Y-94322380D01*
X130296666Y-94274761D01*
X130582380Y-94489047D02*
X130606190Y-94441428D01*
X130606190Y-94322380D01*
X130582380Y-94274761D01*
X130534761Y-94250952D01*
X130487142Y-94250952D01*
X130439523Y-94274761D01*
X130415714Y-94322380D01*
X130415714Y-94441428D01*
X130391904Y-94489047D01*
X130272857Y-94655714D02*
X130272857Y-94846190D01*
X130106190Y-94727142D02*
X130534761Y-94727142D01*
X130582380Y-94750952D01*
X130606190Y-94798571D01*
X130606190Y-94846190D01*
X130606190Y-95012857D02*
X130106190Y-95012857D01*
X130606190Y-95227142D02*
X130344285Y-95227142D01*
X130296666Y-95203333D01*
X130272857Y-95155714D01*
X130272857Y-95084285D01*
X130296666Y-95036666D01*
X130320476Y-95012857D01*
X130582380Y-95655714D02*
X130606190Y-95608095D01*
X130606190Y-95512857D01*
X130582380Y-95465238D01*
X130534761Y-95441428D01*
X130344285Y-95441428D01*
X130296666Y-95465238D01*
X130272857Y-95512857D01*
X130272857Y-95608095D01*
X130296666Y-95655714D01*
X130344285Y-95679523D01*
X130391904Y-95679523D01*
X130439523Y-95441428D01*
X130606190Y-95893809D02*
X130272857Y-95893809D01*
X130368095Y-95893809D02*
X130320476Y-95917619D01*
X130296666Y-95941428D01*
X130272857Y-95989047D01*
X130272857Y-96036666D01*
X130582380Y-96560476D02*
X130606190Y-96631904D01*
X130606190Y-96750952D01*
X130582380Y-96798571D01*
X130558571Y-96822380D01*
X130510952Y-96846190D01*
X130463333Y-96846190D01*
X130415714Y-96822380D01*
X130391904Y-96798571D01*
X130368095Y-96750952D01*
X130344285Y-96655714D01*
X130320476Y-96608095D01*
X130296666Y-96584285D01*
X130249047Y-96560476D01*
X130201428Y-96560476D01*
X130153809Y-96584285D01*
X130130000Y-96608095D01*
X130106190Y-96655714D01*
X130106190Y-96774761D01*
X130130000Y-96846190D01*
X130606190Y-97060476D02*
X130106190Y-97060476D01*
X130606190Y-97274761D02*
X130344285Y-97274761D01*
X130296666Y-97250952D01*
X130272857Y-97203333D01*
X130272857Y-97131904D01*
X130296666Y-97084285D01*
X130320476Y-97060476D01*
X130606190Y-97584285D02*
X130582380Y-97536666D01*
X130558571Y-97512857D01*
X130510952Y-97489047D01*
X130368095Y-97489047D01*
X130320476Y-97512857D01*
X130296666Y-97536666D01*
X130272857Y-97584285D01*
X130272857Y-97655714D01*
X130296666Y-97703333D01*
X130320476Y-97727142D01*
X130368095Y-97750952D01*
X130510952Y-97750952D01*
X130558571Y-97727142D01*
X130582380Y-97703333D01*
X130606190Y-97655714D01*
X130606190Y-97584285D01*
X130606190Y-97965238D02*
X130272857Y-97965238D01*
X130368095Y-97965238D02*
X130320476Y-97989047D01*
X130296666Y-98012857D01*
X130272857Y-98060476D01*
X130272857Y-98108095D01*
X130272857Y-98203333D02*
X130272857Y-98393809D01*
X130106190Y-98274761D02*
X130534761Y-98274761D01*
X130582380Y-98298571D01*
X130606190Y-98346190D01*
X130606190Y-98393809D01*
X146846666Y-95596190D02*
X146846666Y-95953333D01*
X146870476Y-96024761D01*
X146918095Y-96072380D01*
X146989523Y-96096190D01*
X147037142Y-96096190D01*
X146632380Y-95643809D02*
X146608571Y-95620000D01*
X146560952Y-95596190D01*
X146441904Y-95596190D01*
X146394285Y-95620000D01*
X146370476Y-95643809D01*
X146346666Y-95691428D01*
X146346666Y-95739047D01*
X146370476Y-95810476D01*
X146656190Y-96096190D01*
X146346666Y-96096190D01*
X120184285Y-114011428D02*
X120184285Y-113844761D01*
X120446190Y-113844761D02*
X119946190Y-113844761D01*
X119946190Y-114082857D01*
X120422380Y-114463809D02*
X120446190Y-114416190D01*
X120446190Y-114320952D01*
X120422380Y-114273333D01*
X120374761Y-114249523D01*
X120184285Y-114249523D01*
X120136666Y-114273333D01*
X120112857Y-114320952D01*
X120112857Y-114416190D01*
X120136666Y-114463809D01*
X120184285Y-114487619D01*
X120231904Y-114487619D01*
X120279523Y-114249523D01*
X120446190Y-114916190D02*
X120184285Y-114916190D01*
X120136666Y-114892380D01*
X120112857Y-114844761D01*
X120112857Y-114749523D01*
X120136666Y-114701904D01*
X120422380Y-114916190D02*
X120446190Y-114868571D01*
X120446190Y-114749523D01*
X120422380Y-114701904D01*
X120374761Y-114678095D01*
X120327142Y-114678095D01*
X120279523Y-114701904D01*
X120255714Y-114749523D01*
X120255714Y-114868571D01*
X120231904Y-114916190D01*
X120112857Y-115082857D02*
X120112857Y-115273333D01*
X119946190Y-115154285D02*
X120374761Y-115154285D01*
X120422380Y-115178095D01*
X120446190Y-115225714D01*
X120446190Y-115273333D01*
X120446190Y-115440000D02*
X119946190Y-115440000D01*
X120446190Y-115654285D02*
X120184285Y-115654285D01*
X120136666Y-115630476D01*
X120112857Y-115582857D01*
X120112857Y-115511428D01*
X120136666Y-115463809D01*
X120160476Y-115440000D01*
X120422380Y-116082857D02*
X120446190Y-116035238D01*
X120446190Y-115940000D01*
X120422380Y-115892380D01*
X120374761Y-115868571D01*
X120184285Y-115868571D01*
X120136666Y-115892380D01*
X120112857Y-115940000D01*
X120112857Y-116035238D01*
X120136666Y-116082857D01*
X120184285Y-116106666D01*
X120231904Y-116106666D01*
X120279523Y-115868571D01*
X120446190Y-116320952D02*
X120112857Y-116320952D01*
X120208095Y-116320952D02*
X120160476Y-116344761D01*
X120136666Y-116368571D01*
X120112857Y-116416190D01*
X120112857Y-116463809D01*
X120446190Y-117249523D02*
X120446190Y-117011428D01*
X119946190Y-117011428D01*
X120446190Y-117487619D02*
X120422380Y-117440000D01*
X120398571Y-117416190D01*
X120350952Y-117392380D01*
X120208095Y-117392380D01*
X120160476Y-117416190D01*
X120136666Y-117440000D01*
X120112857Y-117487619D01*
X120112857Y-117559047D01*
X120136666Y-117606666D01*
X120160476Y-117630476D01*
X120208095Y-117654285D01*
X120350952Y-117654285D01*
X120398571Y-117630476D01*
X120422380Y-117606666D01*
X120446190Y-117559047D01*
X120446190Y-117487619D01*
X120112857Y-117868571D02*
X120446190Y-117868571D01*
X120160476Y-117868571D02*
X120136666Y-117892380D01*
X120112857Y-117940000D01*
X120112857Y-118011428D01*
X120136666Y-118059047D01*
X120184285Y-118082857D01*
X120446190Y-118082857D01*
X120112857Y-118535238D02*
X120517619Y-118535238D01*
X120565238Y-118511428D01*
X120589047Y-118487619D01*
X120612857Y-118440000D01*
X120612857Y-118368571D01*
X120589047Y-118320952D01*
X120422380Y-118535238D02*
X120446190Y-118487619D01*
X120446190Y-118392380D01*
X120422380Y-118344761D01*
X120398571Y-118320952D01*
X120350952Y-118297142D01*
X120208095Y-118297142D01*
X120160476Y-118320952D01*
X120136666Y-118344761D01*
X120112857Y-118392380D01*
X120112857Y-118487619D01*
X120136666Y-118535238D01*
X141766666Y-115916190D02*
X141766666Y-116273333D01*
X141790476Y-116344761D01*
X141838095Y-116392380D01*
X141909523Y-116416190D01*
X141957142Y-116416190D01*
X141266666Y-116416190D02*
X141552380Y-116416190D01*
X141409523Y-116416190D02*
X141409523Y-115916190D01*
X141457142Y-115987619D01*
X141504761Y-116035238D01*
X141552380Y-116059047D01*
D11*
X123911904Y-112927380D02*
X123340476Y-112927380D01*
X123626190Y-113927380D02*
X123626190Y-112927380D01*
X123007142Y-113927380D02*
X123007142Y-112927380D01*
X122626190Y-112927380D01*
X122530952Y-112975000D01*
X122483333Y-113022619D01*
X122435714Y-113117857D01*
X122435714Y-113260714D01*
X122483333Y-113355952D01*
X122530952Y-113403571D01*
X122626190Y-113451190D01*
X123007142Y-113451190D01*
X121483333Y-113927380D02*
X122054761Y-113927380D01*
X121769047Y-113927380D02*
X121769047Y-112927380D01*
X121864285Y-113070238D01*
X121959523Y-113165476D01*
X122054761Y-113213095D01*
X148402380Y-97745238D02*
X147402380Y-97745238D01*
X148402380Y-98221428D02*
X147402380Y-98221428D01*
X148402380Y-98792857D01*
X147402380Y-98792857D01*
X147402380Y-99126190D02*
X147402380Y-99697619D01*
X148402380Y-99411904D02*
X147402380Y-99411904D01*
X150977380Y-97745238D02*
X149977380Y-97745238D01*
X150977380Y-98221428D02*
X149977380Y-98221428D01*
X150977380Y-98792857D01*
X149977380Y-98792857D01*
X149977380Y-99126190D02*
X149977380Y-99697619D01*
X150977380Y-99411904D02*
X149977380Y-99411904D01*
M02*
