G04 #@! TF.GenerationSoftware,KiCad,Pcbnew,(5.1.5-0-10_14)*
G04 #@! TF.CreationDate,2020-02-04T10:15:42+01:00*
G04 #@! TF.ProjectId,FeatherCAN,46656174-6865-4724-9341-4e2e6b696361,1.0*
G04 #@! TF.SameCoordinates,Original*
G04 #@! TF.FileFunction,Copper,L2,Bot*
G04 #@! TF.FilePolarity,Positive*
%FSLAX46Y46*%
G04 Gerber Fmt 4.6, Leading zero omitted, Abs format (unit mm)*
G04 Created by KiCad (PCBNEW (5.1.5-0-10_14)) date 2020-02-04 10:15:42*
%MOMM*%
%LPD*%
G04 APERTURE LIST*
%ADD10R,1.700000X1.700000*%
%ADD11O,1.700000X1.700000*%
%ADD12C,2.500000*%
%ADD13C,0.100000*%
%ADD14C,0.500000*%
%ADD15C,0.200000*%
%ADD16C,0.300000*%
G04 APERTURE END LIST*
D10*
X160650000Y-95870000D03*
D11*
X158110000Y-95870000D03*
X155570000Y-95870000D03*
X153030000Y-95870000D03*
X150490000Y-95870000D03*
X147950000Y-95870000D03*
X145410000Y-95870000D03*
X142870000Y-95870000D03*
X140330000Y-95870000D03*
X137790000Y-95870000D03*
X135250000Y-95870000D03*
X132710000Y-95870000D03*
D10*
X160650000Y-116190000D03*
D11*
X158110000Y-116190000D03*
X155570000Y-116190000D03*
X153030000Y-116190000D03*
X150490000Y-116190000D03*
X147950000Y-116190000D03*
X145410000Y-116190000D03*
X142870000Y-116190000D03*
X140330000Y-116190000D03*
X137790000Y-116190000D03*
X135250000Y-116190000D03*
X132710000Y-116190000D03*
X130170000Y-116190000D03*
X127630000Y-116190000D03*
X125090000Y-116190000D03*
X122550000Y-116190000D03*
D10*
X159050000Y-109850000D03*
D11*
X159050000Y-107310000D03*
X159050000Y-104770000D03*
X159050000Y-102230000D03*
D12*
X122650000Y-111325000D03*
G04 #@! TA.AperFunction,SMDPad,CuDef*
D13*
G36*
X150600000Y-98800000D02*
G01*
X150600000Y-99300000D01*
X150599398Y-99300000D01*
X150599398Y-99324534D01*
X150594588Y-99373365D01*
X150585016Y-99421490D01*
X150570772Y-99468445D01*
X150551995Y-99513778D01*
X150528864Y-99557051D01*
X150501604Y-99597850D01*
X150470476Y-99635779D01*
X150435779Y-99670476D01*
X150397850Y-99701604D01*
X150357051Y-99728864D01*
X150313778Y-99751995D01*
X150268445Y-99770772D01*
X150221490Y-99785016D01*
X150173365Y-99794588D01*
X150124534Y-99799398D01*
X150100000Y-99799398D01*
X150100000Y-99800000D01*
X149600000Y-99800000D01*
X149600000Y-99799398D01*
X149575466Y-99799398D01*
X149526635Y-99794588D01*
X149478510Y-99785016D01*
X149431555Y-99770772D01*
X149386222Y-99751995D01*
X149342949Y-99728864D01*
X149302150Y-99701604D01*
X149264221Y-99670476D01*
X149229524Y-99635779D01*
X149198396Y-99597850D01*
X149171136Y-99557051D01*
X149148005Y-99513778D01*
X149129228Y-99468445D01*
X149114984Y-99421490D01*
X149105412Y-99373365D01*
X149100602Y-99324534D01*
X149100602Y-99300000D01*
X149100000Y-99300000D01*
X149100000Y-98800000D01*
X150600000Y-98800000D01*
G37*
G04 #@! TD.AperFunction*
G04 #@! TA.AperFunction,SMDPad,CuDef*
G36*
X149100602Y-98000000D02*
G01*
X149100602Y-97975466D01*
X149105412Y-97926635D01*
X149114984Y-97878510D01*
X149129228Y-97831555D01*
X149148005Y-97786222D01*
X149171136Y-97742949D01*
X149198396Y-97702150D01*
X149229524Y-97664221D01*
X149264221Y-97629524D01*
X149302150Y-97598396D01*
X149342949Y-97571136D01*
X149386222Y-97548005D01*
X149431555Y-97529228D01*
X149478510Y-97514984D01*
X149526635Y-97505412D01*
X149575466Y-97500602D01*
X149600000Y-97500602D01*
X149600000Y-97500000D01*
X150100000Y-97500000D01*
X150100000Y-97500602D01*
X150124534Y-97500602D01*
X150173365Y-97505412D01*
X150221490Y-97514984D01*
X150268445Y-97529228D01*
X150313778Y-97548005D01*
X150357051Y-97571136D01*
X150397850Y-97598396D01*
X150435779Y-97629524D01*
X150470476Y-97664221D01*
X150501604Y-97702150D01*
X150528864Y-97742949D01*
X150551995Y-97786222D01*
X150570772Y-97831555D01*
X150585016Y-97878510D01*
X150594588Y-97926635D01*
X150599398Y-97975466D01*
X150599398Y-98000000D01*
X150600000Y-98000000D01*
X150600000Y-98500000D01*
X149100000Y-98500000D01*
X149100000Y-98000000D01*
X149100602Y-98000000D01*
G37*
G04 #@! TD.AperFunction*
G04 #@! TA.AperFunction,SMDPad,CuDef*
G36*
X151675602Y-98000000D02*
G01*
X151675602Y-97975466D01*
X151680412Y-97926635D01*
X151689984Y-97878510D01*
X151704228Y-97831555D01*
X151723005Y-97786222D01*
X151746136Y-97742949D01*
X151773396Y-97702150D01*
X151804524Y-97664221D01*
X151839221Y-97629524D01*
X151877150Y-97598396D01*
X151917949Y-97571136D01*
X151961222Y-97548005D01*
X152006555Y-97529228D01*
X152053510Y-97514984D01*
X152101635Y-97505412D01*
X152150466Y-97500602D01*
X152175000Y-97500602D01*
X152175000Y-97500000D01*
X152675000Y-97500000D01*
X152675000Y-97500602D01*
X152699534Y-97500602D01*
X152748365Y-97505412D01*
X152796490Y-97514984D01*
X152843445Y-97529228D01*
X152888778Y-97548005D01*
X152932051Y-97571136D01*
X152972850Y-97598396D01*
X153010779Y-97629524D01*
X153045476Y-97664221D01*
X153076604Y-97702150D01*
X153103864Y-97742949D01*
X153126995Y-97786222D01*
X153145772Y-97831555D01*
X153160016Y-97878510D01*
X153169588Y-97926635D01*
X153174398Y-97975466D01*
X153174398Y-98000000D01*
X153175000Y-98000000D01*
X153175000Y-98500000D01*
X151675000Y-98500000D01*
X151675000Y-98000000D01*
X151675602Y-98000000D01*
G37*
G04 #@! TD.AperFunction*
G04 #@! TA.AperFunction,SMDPad,CuDef*
G36*
X153175000Y-98800000D02*
G01*
X153175000Y-99300000D01*
X153174398Y-99300000D01*
X153174398Y-99324534D01*
X153169588Y-99373365D01*
X153160016Y-99421490D01*
X153145772Y-99468445D01*
X153126995Y-99513778D01*
X153103864Y-99557051D01*
X153076604Y-99597850D01*
X153045476Y-99635779D01*
X153010779Y-99670476D01*
X152972850Y-99701604D01*
X152932051Y-99728864D01*
X152888778Y-99751995D01*
X152843445Y-99770772D01*
X152796490Y-99785016D01*
X152748365Y-99794588D01*
X152699534Y-99799398D01*
X152675000Y-99799398D01*
X152675000Y-99800000D01*
X152175000Y-99800000D01*
X152175000Y-99799398D01*
X152150466Y-99799398D01*
X152101635Y-99794588D01*
X152053510Y-99785016D01*
X152006555Y-99770772D01*
X151961222Y-99751995D01*
X151917949Y-99728864D01*
X151877150Y-99701604D01*
X151839221Y-99670476D01*
X151804524Y-99635779D01*
X151773396Y-99597850D01*
X151746136Y-99557051D01*
X151723005Y-99513778D01*
X151704228Y-99468445D01*
X151689984Y-99421490D01*
X151680412Y-99373365D01*
X151675602Y-99324534D01*
X151675602Y-99300000D01*
X151675000Y-99300000D01*
X151675000Y-98800000D01*
X153175000Y-98800000D01*
G37*
G04 #@! TD.AperFunction*
D14*
X131300000Y-107525000D03*
X146575000Y-114175000D03*
X138850000Y-113575000D03*
X156350000Y-114125000D03*
X129800000Y-96125000D03*
X137354841Y-106545159D03*
X133900000Y-105300000D03*
X148400000Y-101900000D03*
X149300000Y-106700000D03*
X148100000Y-112000000D03*
X133600000Y-103700000D03*
X132300000Y-110400000D03*
X146000000Y-110500000D03*
X145200000Y-97700000D03*
X142800000Y-110600000D03*
X141500000Y-98200000D03*
X151300000Y-113300000D03*
X153100000Y-108100000D03*
X160700000Y-99600000D03*
X153750000Y-106650000D03*
X153600000Y-100700000D03*
X149500000Y-101900000D03*
X149200000Y-104200000D03*
X146700000Y-104700000D03*
X145700000Y-100900000D03*
X148750000Y-108517996D03*
X153900000Y-99175000D03*
X122100000Y-110875000D03*
D15*
X150684302Y-114850000D02*
X151690000Y-114850000D01*
X149834302Y-114000000D02*
X150684302Y-114850000D01*
X146750000Y-114000000D02*
X149834302Y-114000000D01*
X146575000Y-114175000D02*
X146750000Y-114000000D01*
X151690000Y-114850000D02*
X153030000Y-116190000D01*
X159385001Y-113875001D02*
X160650000Y-115140000D01*
X156599999Y-113875001D02*
X159385001Y-113875001D01*
X160650000Y-115140000D02*
X160650000Y-116190000D01*
X156350000Y-114125000D02*
X156599999Y-113875001D01*
X137354841Y-109454841D02*
X137354841Y-106545159D01*
X141500000Y-113600000D02*
X141634301Y-113600000D01*
X141634301Y-113600000D02*
X141634311Y-113600010D01*
X141500000Y-113600000D02*
X137354841Y-109454841D01*
X146335988Y-113600010D02*
X141500010Y-113600010D01*
X157100000Y-97500000D02*
X154800000Y-99800000D01*
X146336639Y-113599359D02*
X146335988Y-113600010D01*
X149999361Y-113599359D02*
X146336639Y-113599359D01*
X154800000Y-99800000D02*
X154800000Y-111379701D01*
X160650000Y-95870000D02*
X160650000Y-96920000D01*
X160070000Y-97500000D02*
X157100000Y-97500000D01*
X151779701Y-114400000D02*
X150800002Y-114400000D01*
X141500010Y-113600010D02*
X141500000Y-113600000D01*
X154800000Y-111379701D02*
X151779701Y-114400000D01*
X150800002Y-114400000D02*
X149999361Y-113599359D01*
X160650000Y-96920000D02*
X160070000Y-97500000D01*
X150165050Y-113199348D02*
X150865702Y-113900000D01*
X150865702Y-113900000D02*
X151714001Y-113900000D01*
X133900000Y-105300000D02*
X137000000Y-105300000D01*
X137000000Y-105300000D02*
X138000000Y-106300000D01*
X157260001Y-96719999D02*
X158110000Y-95870000D01*
X138000000Y-106300000D02*
X138000000Y-109400000D01*
X141799999Y-113199999D02*
X146170299Y-113199999D01*
X154300001Y-111314000D02*
X154300001Y-99679999D01*
X151714001Y-113900000D02*
X154300001Y-111314000D01*
X146170299Y-113199999D02*
X146170950Y-113199348D01*
X146170950Y-113199348D02*
X150165050Y-113199348D01*
X138000000Y-109400000D02*
X141799999Y-113199999D01*
X154300001Y-99679999D02*
X157260001Y-96719999D01*
X148400000Y-105800000D02*
X149300000Y-106700000D01*
X148400000Y-101900000D02*
X148400000Y-105800000D01*
X149300000Y-110800000D02*
X148100000Y-112000000D01*
X149300000Y-106700000D02*
X149300000Y-110800000D01*
X132300000Y-105000000D02*
X132300000Y-110400000D01*
X133600000Y-103700000D02*
X132300000Y-105000000D01*
X145149999Y-109649999D02*
X145149999Y-97750001D01*
X145149999Y-97750001D02*
X145200000Y-97700000D01*
X146000000Y-110500000D02*
X145149999Y-109649999D01*
X142800000Y-110600000D02*
X142800000Y-98600000D01*
X142400000Y-98200000D02*
X141500000Y-98200000D01*
X142800000Y-98600000D02*
X142400000Y-98200000D01*
D16*
X137790000Y-95870000D02*
X138990001Y-97070001D01*
X138990001Y-97070001D02*
X138990001Y-109753591D01*
X138990001Y-109753591D02*
X141986399Y-112749989D01*
X151050001Y-113050001D02*
X151300000Y-113300000D01*
X150749338Y-112749338D02*
X151050001Y-113050001D01*
X145984550Y-112749338D02*
X150749338Y-112749338D01*
X145983899Y-112749989D02*
X145984550Y-112749338D01*
X141986399Y-112749989D02*
X145983899Y-112749989D01*
X153100000Y-111500000D02*
X151300000Y-113300000D01*
X153100000Y-108100000D02*
X153100000Y-111500000D01*
D15*
X160300000Y-103520000D02*
X159050000Y-104770000D01*
X160300000Y-100353553D02*
X160300000Y-103520000D01*
X160700000Y-99953553D02*
X160300000Y-100353553D01*
X160700000Y-99600000D02*
X160700000Y-99953553D01*
X153600000Y-106500000D02*
X153750000Y-106650000D01*
X153600000Y-100700000D02*
X153600000Y-106500000D01*
X152425000Y-97805000D02*
X152425000Y-98000000D01*
X150490000Y-95870000D02*
X152425000Y-97805000D01*
X149850000Y-97770000D02*
X149850000Y-98000000D01*
X147950000Y-95870000D02*
X149850000Y-97770000D01*
X149200000Y-102200000D02*
X149200000Y-104200000D01*
X149500000Y-101900000D02*
X149200000Y-102200000D01*
X149850000Y-101550000D02*
X149500000Y-101900000D01*
X149850000Y-99300000D02*
X149850000Y-101550000D01*
X145700000Y-103700000D02*
X145700000Y-100900000D01*
X146700000Y-104700000D02*
X145700000Y-103700000D01*
X146700000Y-104700000D02*
X148750000Y-106750000D01*
X148750000Y-106750000D02*
X148750000Y-108517996D01*
X152550000Y-99175000D02*
X152425000Y-99300000D01*
X153900000Y-99175000D02*
X152550000Y-99175000D01*
G36*
X164860650Y-95116562D02*
G01*
X165246043Y-95232918D01*
X165601492Y-95421914D01*
X165913466Y-95676354D01*
X166170073Y-95986539D01*
X166361548Y-96340665D01*
X166480591Y-96725231D01*
X166512173Y-97025707D01*
X166507235Y-97041984D01*
X166500000Y-97115441D01*
X166500001Y-114944560D01*
X166507236Y-115018017D01*
X166511676Y-115032655D01*
X166483438Y-115320650D01*
X166367081Y-115706044D01*
X166178085Y-116061495D01*
X165923646Y-116373466D01*
X165613461Y-116630073D01*
X165259335Y-116821548D01*
X164874770Y-116940591D01*
X164574294Y-116972172D01*
X164558017Y-116967235D01*
X164484560Y-116960000D01*
X162110509Y-116960000D01*
X162108000Y-116496000D01*
X161956000Y-116344000D01*
X160804000Y-116344000D01*
X160804000Y-116364000D01*
X160496000Y-116364000D01*
X160496000Y-116344000D01*
X160476000Y-116344000D01*
X160476000Y-116036000D01*
X160496000Y-116036000D01*
X160496000Y-114884000D01*
X160804000Y-114884000D01*
X160804000Y-116036000D01*
X161956000Y-116036000D01*
X162108000Y-115884000D01*
X162110942Y-115340000D01*
X162099203Y-115220811D01*
X162064437Y-115106203D01*
X162007980Y-115000579D01*
X161932001Y-114907999D01*
X161839421Y-114832020D01*
X161733797Y-114775563D01*
X161641748Y-114747640D01*
X162710000Y-114747640D01*
X162710000Y-115092360D01*
X162777251Y-115430456D01*
X162909170Y-115748936D01*
X163100686Y-116035560D01*
X163344440Y-116279314D01*
X163631064Y-116470830D01*
X163949544Y-116602749D01*
X164287640Y-116670000D01*
X164632360Y-116670000D01*
X164970456Y-116602749D01*
X165288936Y-116470830D01*
X165575560Y-116279314D01*
X165819314Y-116035560D01*
X166010830Y-115748936D01*
X166142749Y-115430456D01*
X166210000Y-115092360D01*
X166210000Y-114747640D01*
X166142749Y-114409544D01*
X166010830Y-114091064D01*
X165819314Y-113804440D01*
X165575560Y-113560686D01*
X165288936Y-113369170D01*
X164970456Y-113237251D01*
X164632360Y-113170000D01*
X164287640Y-113170000D01*
X163949544Y-113237251D01*
X163631064Y-113369170D01*
X163344440Y-113560686D01*
X163100686Y-113804440D01*
X162909170Y-114091064D01*
X162777251Y-114409544D01*
X162710000Y-114747640D01*
X161641748Y-114747640D01*
X161619189Y-114740797D01*
X161500000Y-114729058D01*
X160956000Y-114732000D01*
X160804000Y-114884000D01*
X160496000Y-114884000D01*
X160344000Y-114732000D01*
X159800000Y-114729058D01*
X159680811Y-114740797D01*
X159566203Y-114775563D01*
X159460579Y-114832020D01*
X159367999Y-114907999D01*
X159292020Y-115000579D01*
X159235563Y-115106203D01*
X159200797Y-115220811D01*
X159189058Y-115340000D01*
X159190230Y-115556739D01*
X159080938Y-115393172D01*
X158906828Y-115219062D01*
X158702097Y-115082265D01*
X158474611Y-114988037D01*
X158233114Y-114940000D01*
X157986886Y-114940000D01*
X157745389Y-114988037D01*
X157517903Y-115082265D01*
X157313172Y-115219062D01*
X157139062Y-115393172D01*
X157002265Y-115597903D01*
X156908037Y-115825389D01*
X156860000Y-116066886D01*
X156860000Y-116313114D01*
X156908037Y-116554611D01*
X157002265Y-116782097D01*
X157121136Y-116960000D01*
X156558864Y-116960000D01*
X156677735Y-116782097D01*
X156771963Y-116554611D01*
X156820000Y-116313114D01*
X156820000Y-116066886D01*
X156771963Y-115825389D01*
X156677735Y-115597903D01*
X156540938Y-115393172D01*
X156366828Y-115219062D01*
X156162097Y-115082265D01*
X155934611Y-114988037D01*
X155693114Y-114940000D01*
X155446886Y-114940000D01*
X155205389Y-114988037D01*
X154977903Y-115082265D01*
X154773172Y-115219062D01*
X154599062Y-115393172D01*
X154462265Y-115597903D01*
X154368037Y-115825389D01*
X154320000Y-116066886D01*
X154320000Y-116313114D01*
X154368037Y-116554611D01*
X154462265Y-116782097D01*
X154581136Y-116960000D01*
X154018864Y-116960000D01*
X154137735Y-116782097D01*
X154231963Y-116554611D01*
X154280000Y-116313114D01*
X154280000Y-116066886D01*
X154231963Y-115825389D01*
X154137735Y-115597903D01*
X154000938Y-115393172D01*
X153826828Y-115219062D01*
X153622097Y-115082265D01*
X153394611Y-114988037D01*
X153153114Y-114940000D01*
X152906886Y-114940000D01*
X152665389Y-114988037D01*
X152573291Y-115026185D01*
X152216956Y-114669850D01*
X155136187Y-111750621D01*
X155155264Y-111734965D01*
X155217746Y-111658830D01*
X155264175Y-111571968D01*
X155292765Y-111477718D01*
X155300000Y-111404261D01*
X155302419Y-111379701D01*
X155300000Y-111355141D01*
X155300000Y-109000000D01*
X157798065Y-109000000D01*
X157798065Y-110700000D01*
X157805788Y-110778414D01*
X157828660Y-110853814D01*
X157865803Y-110923303D01*
X157915789Y-110984211D01*
X157976697Y-111034197D01*
X158046186Y-111071340D01*
X158121586Y-111094212D01*
X158200000Y-111101935D01*
X159900000Y-111101935D01*
X159978414Y-111094212D01*
X160053814Y-111071340D01*
X160123303Y-111034197D01*
X160184211Y-110984211D01*
X160234197Y-110923303D01*
X160271340Y-110853814D01*
X160294212Y-110778414D01*
X160301935Y-110700000D01*
X160301935Y-109000000D01*
X160294212Y-108921586D01*
X160271340Y-108846186D01*
X160234197Y-108776697D01*
X160184211Y-108715789D01*
X160123303Y-108665803D01*
X160053814Y-108628660D01*
X159978414Y-108605788D01*
X159900000Y-108598065D01*
X158200000Y-108598065D01*
X158121586Y-108605788D01*
X158046186Y-108628660D01*
X157976697Y-108665803D01*
X157915789Y-108715789D01*
X157865803Y-108776697D01*
X157828660Y-108846186D01*
X157805788Y-108921586D01*
X157798065Y-109000000D01*
X155300000Y-109000000D01*
X155300000Y-107186886D01*
X157800000Y-107186886D01*
X157800000Y-107433114D01*
X157848037Y-107674611D01*
X157942265Y-107902097D01*
X158079062Y-108106828D01*
X158253172Y-108280938D01*
X158457903Y-108417735D01*
X158685389Y-108511963D01*
X158926886Y-108560000D01*
X159173114Y-108560000D01*
X159414611Y-108511963D01*
X159642097Y-108417735D01*
X159846828Y-108280938D01*
X160020938Y-108106828D01*
X160157735Y-107902097D01*
X160251963Y-107674611D01*
X160300000Y-107433114D01*
X160300000Y-107186886D01*
X160251963Y-106945389D01*
X160157735Y-106717903D01*
X160020938Y-106513172D01*
X159846828Y-106339062D01*
X159642097Y-106202265D01*
X159414611Y-106108037D01*
X159173114Y-106060000D01*
X158926886Y-106060000D01*
X158685389Y-106108037D01*
X158457903Y-106202265D01*
X158253172Y-106339062D01*
X158079062Y-106513172D01*
X157942265Y-106717903D01*
X157848037Y-106945389D01*
X157800000Y-107186886D01*
X155300000Y-107186886D01*
X155300000Y-102608910D01*
X157642097Y-102608910D01*
X157668854Y-102697139D01*
X157786527Y-102957611D01*
X157952754Y-103190122D01*
X158161148Y-103385736D01*
X158403700Y-103536935D01*
X158590330Y-103607412D01*
X158457903Y-103662265D01*
X158253172Y-103799062D01*
X158079062Y-103973172D01*
X157942265Y-104177903D01*
X157848037Y-104405389D01*
X157800000Y-104646886D01*
X157800000Y-104893114D01*
X157848037Y-105134611D01*
X157942265Y-105362097D01*
X158079062Y-105566828D01*
X158253172Y-105740938D01*
X158457903Y-105877735D01*
X158685389Y-105971963D01*
X158926886Y-106020000D01*
X159173114Y-106020000D01*
X159414611Y-105971963D01*
X159642097Y-105877735D01*
X159846828Y-105740938D01*
X160020938Y-105566828D01*
X160157735Y-105362097D01*
X160251963Y-105134611D01*
X160300000Y-104893114D01*
X160300000Y-104646886D01*
X160251963Y-104405389D01*
X160213815Y-104313291D01*
X160636181Y-103890925D01*
X160655264Y-103875264D01*
X160717746Y-103799129D01*
X160764175Y-103712267D01*
X160792765Y-103618017D01*
X160800000Y-103544560D01*
X160802419Y-103520000D01*
X160800000Y-103495440D01*
X160800000Y-100560659D01*
X161036186Y-100324474D01*
X161055264Y-100308817D01*
X161117746Y-100232682D01*
X161164175Y-100145820D01*
X161192765Y-100051569D01*
X161195507Y-100023732D01*
X161204888Y-100014351D01*
X161276022Y-99907890D01*
X161325021Y-99789598D01*
X161350000Y-99664019D01*
X161350000Y-99535981D01*
X161325021Y-99410402D01*
X161276022Y-99292110D01*
X161204888Y-99185649D01*
X161114351Y-99095112D01*
X161007890Y-99023978D01*
X160889598Y-98974979D01*
X160764019Y-98950000D01*
X160635981Y-98950000D01*
X160510402Y-98974979D01*
X160392110Y-99023978D01*
X160285649Y-99095112D01*
X160195112Y-99185649D01*
X160123978Y-99292110D01*
X160074979Y-99410402D01*
X160050000Y-99535981D01*
X160050000Y-99664019D01*
X160074979Y-99789598D01*
X160098959Y-99847489D01*
X159963823Y-99982625D01*
X159944736Y-99998289D01*
X159882254Y-100074424D01*
X159835825Y-100161287D01*
X159824225Y-100199527D01*
X159807235Y-100255536D01*
X159797581Y-100353553D01*
X159800000Y-100378113D01*
X159800000Y-100987708D01*
X159696300Y-100923065D01*
X159428911Y-100822091D01*
X159204000Y-100932150D01*
X159204000Y-102076000D01*
X159224000Y-102076000D01*
X159224000Y-102384000D01*
X159204000Y-102384000D01*
X159204000Y-102404000D01*
X158896000Y-102404000D01*
X158896000Y-102384000D01*
X157753111Y-102384000D01*
X157642097Y-102608910D01*
X155300000Y-102608910D01*
X155300000Y-101851090D01*
X157642097Y-101851090D01*
X157753111Y-102076000D01*
X158896000Y-102076000D01*
X158896000Y-100932150D01*
X158671089Y-100822091D01*
X158403700Y-100923065D01*
X158161148Y-101074264D01*
X157952754Y-101269878D01*
X157786527Y-101502389D01*
X157668854Y-101762861D01*
X157642097Y-101851090D01*
X155300000Y-101851090D01*
X155300000Y-100007105D01*
X157307106Y-98000000D01*
X160045440Y-98000000D01*
X160070000Y-98002419D01*
X160094560Y-98000000D01*
X160168017Y-97992765D01*
X160262267Y-97964175D01*
X160349129Y-97917746D01*
X160425264Y-97855264D01*
X160440929Y-97836177D01*
X160986186Y-97290920D01*
X161005264Y-97275264D01*
X161067746Y-97199129D01*
X161109007Y-97121935D01*
X161500000Y-97121935D01*
X161578414Y-97114212D01*
X161653814Y-97091340D01*
X161723303Y-97054197D01*
X161784211Y-97004211D01*
X161814224Y-96967640D01*
X162710000Y-96967640D01*
X162710000Y-97312360D01*
X162777251Y-97650456D01*
X162909170Y-97968936D01*
X163100686Y-98255560D01*
X163344440Y-98499314D01*
X163631064Y-98690830D01*
X163949544Y-98822749D01*
X164287640Y-98890000D01*
X164632360Y-98890000D01*
X164970456Y-98822749D01*
X165288936Y-98690830D01*
X165575560Y-98499314D01*
X165819314Y-98255560D01*
X166010830Y-97968936D01*
X166142749Y-97650456D01*
X166210000Y-97312360D01*
X166210000Y-96967640D01*
X166142749Y-96629544D01*
X166010830Y-96311064D01*
X165819314Y-96024440D01*
X165575560Y-95780686D01*
X165288936Y-95589170D01*
X164970456Y-95457251D01*
X164632360Y-95390000D01*
X164287640Y-95390000D01*
X163949544Y-95457251D01*
X163631064Y-95589170D01*
X163344440Y-95780686D01*
X163100686Y-96024440D01*
X162909170Y-96311064D01*
X162777251Y-96629544D01*
X162710000Y-96967640D01*
X161814224Y-96967640D01*
X161834197Y-96943303D01*
X161871340Y-96873814D01*
X161894212Y-96798414D01*
X161901935Y-96720000D01*
X161901935Y-95100000D01*
X164484560Y-95100000D01*
X164558017Y-95092765D01*
X164572657Y-95088324D01*
X164860650Y-95116562D01*
G37*
X164860650Y-95116562D02*
X165246043Y-95232918D01*
X165601492Y-95421914D01*
X165913466Y-95676354D01*
X166170073Y-95986539D01*
X166361548Y-96340665D01*
X166480591Y-96725231D01*
X166512173Y-97025707D01*
X166507235Y-97041984D01*
X166500000Y-97115441D01*
X166500001Y-114944560D01*
X166507236Y-115018017D01*
X166511676Y-115032655D01*
X166483438Y-115320650D01*
X166367081Y-115706044D01*
X166178085Y-116061495D01*
X165923646Y-116373466D01*
X165613461Y-116630073D01*
X165259335Y-116821548D01*
X164874770Y-116940591D01*
X164574294Y-116972172D01*
X164558017Y-116967235D01*
X164484560Y-116960000D01*
X162110509Y-116960000D01*
X162108000Y-116496000D01*
X161956000Y-116344000D01*
X160804000Y-116344000D01*
X160804000Y-116364000D01*
X160496000Y-116364000D01*
X160496000Y-116344000D01*
X160476000Y-116344000D01*
X160476000Y-116036000D01*
X160496000Y-116036000D01*
X160496000Y-114884000D01*
X160804000Y-114884000D01*
X160804000Y-116036000D01*
X161956000Y-116036000D01*
X162108000Y-115884000D01*
X162110942Y-115340000D01*
X162099203Y-115220811D01*
X162064437Y-115106203D01*
X162007980Y-115000579D01*
X161932001Y-114907999D01*
X161839421Y-114832020D01*
X161733797Y-114775563D01*
X161641748Y-114747640D01*
X162710000Y-114747640D01*
X162710000Y-115092360D01*
X162777251Y-115430456D01*
X162909170Y-115748936D01*
X163100686Y-116035560D01*
X163344440Y-116279314D01*
X163631064Y-116470830D01*
X163949544Y-116602749D01*
X164287640Y-116670000D01*
X164632360Y-116670000D01*
X164970456Y-116602749D01*
X165288936Y-116470830D01*
X165575560Y-116279314D01*
X165819314Y-116035560D01*
X166010830Y-115748936D01*
X166142749Y-115430456D01*
X166210000Y-115092360D01*
X166210000Y-114747640D01*
X166142749Y-114409544D01*
X166010830Y-114091064D01*
X165819314Y-113804440D01*
X165575560Y-113560686D01*
X165288936Y-113369170D01*
X164970456Y-113237251D01*
X164632360Y-113170000D01*
X164287640Y-113170000D01*
X163949544Y-113237251D01*
X163631064Y-113369170D01*
X163344440Y-113560686D01*
X163100686Y-113804440D01*
X162909170Y-114091064D01*
X162777251Y-114409544D01*
X162710000Y-114747640D01*
X161641748Y-114747640D01*
X161619189Y-114740797D01*
X161500000Y-114729058D01*
X160956000Y-114732000D01*
X160804000Y-114884000D01*
X160496000Y-114884000D01*
X160344000Y-114732000D01*
X159800000Y-114729058D01*
X159680811Y-114740797D01*
X159566203Y-114775563D01*
X159460579Y-114832020D01*
X159367999Y-114907999D01*
X159292020Y-115000579D01*
X159235563Y-115106203D01*
X159200797Y-115220811D01*
X159189058Y-115340000D01*
X159190230Y-115556739D01*
X159080938Y-115393172D01*
X158906828Y-115219062D01*
X158702097Y-115082265D01*
X158474611Y-114988037D01*
X158233114Y-114940000D01*
X157986886Y-114940000D01*
X157745389Y-114988037D01*
X157517903Y-115082265D01*
X157313172Y-115219062D01*
X157139062Y-115393172D01*
X157002265Y-115597903D01*
X156908037Y-115825389D01*
X156860000Y-116066886D01*
X156860000Y-116313114D01*
X156908037Y-116554611D01*
X157002265Y-116782097D01*
X157121136Y-116960000D01*
X156558864Y-116960000D01*
X156677735Y-116782097D01*
X156771963Y-116554611D01*
X156820000Y-116313114D01*
X156820000Y-116066886D01*
X156771963Y-115825389D01*
X156677735Y-115597903D01*
X156540938Y-115393172D01*
X156366828Y-115219062D01*
X156162097Y-115082265D01*
X155934611Y-114988037D01*
X155693114Y-114940000D01*
X155446886Y-114940000D01*
X155205389Y-114988037D01*
X154977903Y-115082265D01*
X154773172Y-115219062D01*
X154599062Y-115393172D01*
X154462265Y-115597903D01*
X154368037Y-115825389D01*
X154320000Y-116066886D01*
X154320000Y-116313114D01*
X154368037Y-116554611D01*
X154462265Y-116782097D01*
X154581136Y-116960000D01*
X154018864Y-116960000D01*
X154137735Y-116782097D01*
X154231963Y-116554611D01*
X154280000Y-116313114D01*
X154280000Y-116066886D01*
X154231963Y-115825389D01*
X154137735Y-115597903D01*
X154000938Y-115393172D01*
X153826828Y-115219062D01*
X153622097Y-115082265D01*
X153394611Y-114988037D01*
X153153114Y-114940000D01*
X152906886Y-114940000D01*
X152665389Y-114988037D01*
X152573291Y-115026185D01*
X152216956Y-114669850D01*
X155136187Y-111750621D01*
X155155264Y-111734965D01*
X155217746Y-111658830D01*
X155264175Y-111571968D01*
X155292765Y-111477718D01*
X155300000Y-111404261D01*
X155302419Y-111379701D01*
X155300000Y-111355141D01*
X155300000Y-109000000D01*
X157798065Y-109000000D01*
X157798065Y-110700000D01*
X157805788Y-110778414D01*
X157828660Y-110853814D01*
X157865803Y-110923303D01*
X157915789Y-110984211D01*
X157976697Y-111034197D01*
X158046186Y-111071340D01*
X158121586Y-111094212D01*
X158200000Y-111101935D01*
X159900000Y-111101935D01*
X159978414Y-111094212D01*
X160053814Y-111071340D01*
X160123303Y-111034197D01*
X160184211Y-110984211D01*
X160234197Y-110923303D01*
X160271340Y-110853814D01*
X160294212Y-110778414D01*
X160301935Y-110700000D01*
X160301935Y-109000000D01*
X160294212Y-108921586D01*
X160271340Y-108846186D01*
X160234197Y-108776697D01*
X160184211Y-108715789D01*
X160123303Y-108665803D01*
X160053814Y-108628660D01*
X159978414Y-108605788D01*
X159900000Y-108598065D01*
X158200000Y-108598065D01*
X158121586Y-108605788D01*
X158046186Y-108628660D01*
X157976697Y-108665803D01*
X157915789Y-108715789D01*
X157865803Y-108776697D01*
X157828660Y-108846186D01*
X157805788Y-108921586D01*
X157798065Y-109000000D01*
X155300000Y-109000000D01*
X155300000Y-107186886D01*
X157800000Y-107186886D01*
X157800000Y-107433114D01*
X157848037Y-107674611D01*
X157942265Y-107902097D01*
X158079062Y-108106828D01*
X158253172Y-108280938D01*
X158457903Y-108417735D01*
X158685389Y-108511963D01*
X158926886Y-108560000D01*
X159173114Y-108560000D01*
X159414611Y-108511963D01*
X159642097Y-108417735D01*
X159846828Y-108280938D01*
X160020938Y-108106828D01*
X160157735Y-107902097D01*
X160251963Y-107674611D01*
X160300000Y-107433114D01*
X160300000Y-107186886D01*
X160251963Y-106945389D01*
X160157735Y-106717903D01*
X160020938Y-106513172D01*
X159846828Y-106339062D01*
X159642097Y-106202265D01*
X159414611Y-106108037D01*
X159173114Y-106060000D01*
X158926886Y-106060000D01*
X158685389Y-106108037D01*
X158457903Y-106202265D01*
X158253172Y-106339062D01*
X158079062Y-106513172D01*
X157942265Y-106717903D01*
X157848037Y-106945389D01*
X157800000Y-107186886D01*
X155300000Y-107186886D01*
X155300000Y-102608910D01*
X157642097Y-102608910D01*
X157668854Y-102697139D01*
X157786527Y-102957611D01*
X157952754Y-103190122D01*
X158161148Y-103385736D01*
X158403700Y-103536935D01*
X158590330Y-103607412D01*
X158457903Y-103662265D01*
X158253172Y-103799062D01*
X158079062Y-103973172D01*
X157942265Y-104177903D01*
X157848037Y-104405389D01*
X157800000Y-104646886D01*
X157800000Y-104893114D01*
X157848037Y-105134611D01*
X157942265Y-105362097D01*
X158079062Y-105566828D01*
X158253172Y-105740938D01*
X158457903Y-105877735D01*
X158685389Y-105971963D01*
X158926886Y-106020000D01*
X159173114Y-106020000D01*
X159414611Y-105971963D01*
X159642097Y-105877735D01*
X159846828Y-105740938D01*
X160020938Y-105566828D01*
X160157735Y-105362097D01*
X160251963Y-105134611D01*
X160300000Y-104893114D01*
X160300000Y-104646886D01*
X160251963Y-104405389D01*
X160213815Y-104313291D01*
X160636181Y-103890925D01*
X160655264Y-103875264D01*
X160717746Y-103799129D01*
X160764175Y-103712267D01*
X160792765Y-103618017D01*
X160800000Y-103544560D01*
X160802419Y-103520000D01*
X160800000Y-103495440D01*
X160800000Y-100560659D01*
X161036186Y-100324474D01*
X161055264Y-100308817D01*
X161117746Y-100232682D01*
X161164175Y-100145820D01*
X161192765Y-100051569D01*
X161195507Y-100023732D01*
X161204888Y-100014351D01*
X161276022Y-99907890D01*
X161325021Y-99789598D01*
X161350000Y-99664019D01*
X161350000Y-99535981D01*
X161325021Y-99410402D01*
X161276022Y-99292110D01*
X161204888Y-99185649D01*
X161114351Y-99095112D01*
X161007890Y-99023978D01*
X160889598Y-98974979D01*
X160764019Y-98950000D01*
X160635981Y-98950000D01*
X160510402Y-98974979D01*
X160392110Y-99023978D01*
X160285649Y-99095112D01*
X160195112Y-99185649D01*
X160123978Y-99292110D01*
X160074979Y-99410402D01*
X160050000Y-99535981D01*
X160050000Y-99664019D01*
X160074979Y-99789598D01*
X160098959Y-99847489D01*
X159963823Y-99982625D01*
X159944736Y-99998289D01*
X159882254Y-100074424D01*
X159835825Y-100161287D01*
X159824225Y-100199527D01*
X159807235Y-100255536D01*
X159797581Y-100353553D01*
X159800000Y-100378113D01*
X159800000Y-100987708D01*
X159696300Y-100923065D01*
X159428911Y-100822091D01*
X159204000Y-100932150D01*
X159204000Y-102076000D01*
X159224000Y-102076000D01*
X159224000Y-102384000D01*
X159204000Y-102384000D01*
X159204000Y-102404000D01*
X158896000Y-102404000D01*
X158896000Y-102384000D01*
X157753111Y-102384000D01*
X157642097Y-102608910D01*
X155300000Y-102608910D01*
X155300000Y-101851090D01*
X157642097Y-101851090D01*
X157753111Y-102076000D01*
X158896000Y-102076000D01*
X158896000Y-100932150D01*
X158671089Y-100822091D01*
X158403700Y-100923065D01*
X158161148Y-101074264D01*
X157952754Y-101269878D01*
X157786527Y-101502389D01*
X157668854Y-101762861D01*
X157642097Y-101851090D01*
X155300000Y-101851090D01*
X155300000Y-100007105D01*
X157307106Y-98000000D01*
X160045440Y-98000000D01*
X160070000Y-98002419D01*
X160094560Y-98000000D01*
X160168017Y-97992765D01*
X160262267Y-97964175D01*
X160349129Y-97917746D01*
X160425264Y-97855264D01*
X160440929Y-97836177D01*
X160986186Y-97290920D01*
X161005264Y-97275264D01*
X161067746Y-97199129D01*
X161109007Y-97121935D01*
X161500000Y-97121935D01*
X161578414Y-97114212D01*
X161653814Y-97091340D01*
X161723303Y-97054197D01*
X161784211Y-97004211D01*
X161814224Y-96967640D01*
X162710000Y-96967640D01*
X162710000Y-97312360D01*
X162777251Y-97650456D01*
X162909170Y-97968936D01*
X163100686Y-98255560D01*
X163344440Y-98499314D01*
X163631064Y-98690830D01*
X163949544Y-98822749D01*
X164287640Y-98890000D01*
X164632360Y-98890000D01*
X164970456Y-98822749D01*
X165288936Y-98690830D01*
X165575560Y-98499314D01*
X165819314Y-98255560D01*
X166010830Y-97968936D01*
X166142749Y-97650456D01*
X166210000Y-97312360D01*
X166210000Y-96967640D01*
X166142749Y-96629544D01*
X166010830Y-96311064D01*
X165819314Y-96024440D01*
X165575560Y-95780686D01*
X165288936Y-95589170D01*
X164970456Y-95457251D01*
X164632360Y-95390000D01*
X164287640Y-95390000D01*
X163949544Y-95457251D01*
X163631064Y-95589170D01*
X163344440Y-95780686D01*
X163100686Y-96024440D01*
X162909170Y-96311064D01*
X162777251Y-96629544D01*
X162710000Y-96967640D01*
X161814224Y-96967640D01*
X161834197Y-96943303D01*
X161871340Y-96873814D01*
X161894212Y-96798414D01*
X161901935Y-96720000D01*
X161901935Y-95100000D01*
X164484560Y-95100000D01*
X164558017Y-95092765D01*
X164572657Y-95088324D01*
X164860650Y-95116562D01*
G36*
X118641983Y-95092765D02*
G01*
X118715440Y-95100000D01*
X131721136Y-95100000D01*
X131602265Y-95277903D01*
X131508037Y-95505389D01*
X131460000Y-95746886D01*
X131460000Y-95993114D01*
X131508037Y-96234611D01*
X131602265Y-96462097D01*
X131739062Y-96666828D01*
X131913172Y-96840938D01*
X132117903Y-96977735D01*
X132345389Y-97071963D01*
X132586886Y-97120000D01*
X132833114Y-97120000D01*
X133074611Y-97071963D01*
X133302097Y-96977735D01*
X133506828Y-96840938D01*
X133680938Y-96666828D01*
X133817735Y-96462097D01*
X133911963Y-96234611D01*
X133960000Y-95993114D01*
X133960000Y-95746886D01*
X133911963Y-95505389D01*
X133817735Y-95277903D01*
X133698864Y-95100000D01*
X134261136Y-95100000D01*
X134142265Y-95277903D01*
X134048037Y-95505389D01*
X134000000Y-95746886D01*
X134000000Y-95993114D01*
X134048037Y-96234611D01*
X134142265Y-96462097D01*
X134279062Y-96666828D01*
X134453172Y-96840938D01*
X134657903Y-96977735D01*
X134885389Y-97071963D01*
X135126886Y-97120000D01*
X135373114Y-97120000D01*
X135614611Y-97071963D01*
X135842097Y-96977735D01*
X136046828Y-96840938D01*
X136220938Y-96666828D01*
X136357735Y-96462097D01*
X136451963Y-96234611D01*
X136500000Y-95993114D01*
X136500000Y-95746886D01*
X136451963Y-95505389D01*
X136357735Y-95277903D01*
X136238864Y-95100000D01*
X136801136Y-95100000D01*
X136682265Y-95277903D01*
X136588037Y-95505389D01*
X136540000Y-95746886D01*
X136540000Y-95993114D01*
X136588037Y-96234611D01*
X136682265Y-96462097D01*
X136819062Y-96666828D01*
X136993172Y-96840938D01*
X137197903Y-96977735D01*
X137425389Y-97071963D01*
X137666886Y-97120000D01*
X137913114Y-97120000D01*
X138154611Y-97071963D01*
X138196709Y-97054526D01*
X138440001Y-97297818D01*
X138440002Y-106062508D01*
X138417746Y-106020871D01*
X138355264Y-105944736D01*
X138336187Y-105929080D01*
X137370929Y-104963824D01*
X137355264Y-104944736D01*
X137279129Y-104882254D01*
X137192267Y-104835825D01*
X137098017Y-104807235D01*
X137024560Y-104800000D01*
X137000000Y-104797581D01*
X136975440Y-104800000D01*
X134319239Y-104800000D01*
X134314351Y-104795112D01*
X134207890Y-104723978D01*
X134089598Y-104674979D01*
X133964019Y-104650000D01*
X133835981Y-104650000D01*
X133710402Y-104674979D01*
X133592110Y-104723978D01*
X133485649Y-104795112D01*
X133395112Y-104885649D01*
X133323978Y-104992110D01*
X133274979Y-105110402D01*
X133250000Y-105235981D01*
X133250000Y-105364019D01*
X133274979Y-105489598D01*
X133323978Y-105607890D01*
X133395112Y-105714351D01*
X133485649Y-105804888D01*
X133592110Y-105876022D01*
X133710402Y-105925021D01*
X133835981Y-105950000D01*
X133964019Y-105950000D01*
X134089598Y-105925021D01*
X134207890Y-105876022D01*
X134314351Y-105804888D01*
X134319239Y-105800000D01*
X136792895Y-105800000D01*
X136996045Y-106003151D01*
X136940490Y-106040271D01*
X136849953Y-106130808D01*
X136778819Y-106237269D01*
X136729820Y-106355561D01*
X136704841Y-106481140D01*
X136704841Y-106609178D01*
X136729820Y-106734757D01*
X136778819Y-106853049D01*
X136849953Y-106959510D01*
X136854842Y-106964399D01*
X136854841Y-109430281D01*
X136852422Y-109454841D01*
X136854841Y-109479400D01*
X136862076Y-109552857D01*
X136890666Y-109647107D01*
X136937095Y-109733970D01*
X136999577Y-109810105D01*
X137018665Y-109825770D01*
X141129075Y-113936181D01*
X141144736Y-113955264D01*
X141144746Y-113955274D01*
X141220881Y-114017756D01*
X141307743Y-114064185D01*
X141401993Y-114092775D01*
X141475450Y-114100010D01*
X141475452Y-114100010D01*
X141500009Y-114102429D01*
X141524567Y-114100010D01*
X141609753Y-114100010D01*
X141634310Y-114102429D01*
X141658868Y-114100010D01*
X145927182Y-114100010D01*
X145925000Y-114110981D01*
X145925000Y-114239019D01*
X145949979Y-114364598D01*
X145998978Y-114482890D01*
X146070112Y-114589351D01*
X146160649Y-114679888D01*
X146267110Y-114751022D01*
X146385402Y-114800021D01*
X146510981Y-114825000D01*
X146639019Y-114825000D01*
X146764598Y-114800021D01*
X146882890Y-114751022D01*
X146989351Y-114679888D01*
X147079888Y-114589351D01*
X147139590Y-114500000D01*
X149627197Y-114500000D01*
X150118207Y-114991012D01*
X149897903Y-115082265D01*
X149693172Y-115219062D01*
X149519062Y-115393172D01*
X149382265Y-115597903D01*
X149288037Y-115825389D01*
X149240000Y-116066886D01*
X149240000Y-116313114D01*
X149288037Y-116554611D01*
X149382265Y-116782097D01*
X149501136Y-116960000D01*
X148938864Y-116960000D01*
X149057735Y-116782097D01*
X149151963Y-116554611D01*
X149200000Y-116313114D01*
X149200000Y-116066886D01*
X149151963Y-115825389D01*
X149057735Y-115597903D01*
X148920938Y-115393172D01*
X148746828Y-115219062D01*
X148542097Y-115082265D01*
X148314611Y-114988037D01*
X148073114Y-114940000D01*
X147826886Y-114940000D01*
X147585389Y-114988037D01*
X147357903Y-115082265D01*
X147153172Y-115219062D01*
X146979062Y-115393172D01*
X146842265Y-115597903D01*
X146748037Y-115825389D01*
X146700000Y-116066886D01*
X146700000Y-116313114D01*
X146748037Y-116554611D01*
X146842265Y-116782097D01*
X146961136Y-116960000D01*
X146398864Y-116960000D01*
X146517735Y-116782097D01*
X146611963Y-116554611D01*
X146660000Y-116313114D01*
X146660000Y-116066886D01*
X146611963Y-115825389D01*
X146517735Y-115597903D01*
X146380938Y-115393172D01*
X146206828Y-115219062D01*
X146002097Y-115082265D01*
X145774611Y-114988037D01*
X145533114Y-114940000D01*
X145286886Y-114940000D01*
X145045389Y-114988037D01*
X144817903Y-115082265D01*
X144613172Y-115219062D01*
X144439062Y-115393172D01*
X144302265Y-115597903D01*
X144208037Y-115825389D01*
X144160000Y-116066886D01*
X144160000Y-116313114D01*
X144208037Y-116554611D01*
X144302265Y-116782097D01*
X144421136Y-116960000D01*
X143858864Y-116960000D01*
X143977735Y-116782097D01*
X144071963Y-116554611D01*
X144120000Y-116313114D01*
X144120000Y-116066886D01*
X144071963Y-115825389D01*
X143977735Y-115597903D01*
X143840938Y-115393172D01*
X143666828Y-115219062D01*
X143462097Y-115082265D01*
X143234611Y-114988037D01*
X142993114Y-114940000D01*
X142746886Y-114940000D01*
X142505389Y-114988037D01*
X142277903Y-115082265D01*
X142073172Y-115219062D01*
X141899062Y-115393172D01*
X141762265Y-115597903D01*
X141668037Y-115825389D01*
X141620000Y-116066886D01*
X141620000Y-116313114D01*
X141668037Y-116554611D01*
X141762265Y-116782097D01*
X141881136Y-116960000D01*
X141318864Y-116960000D01*
X141437735Y-116782097D01*
X141531963Y-116554611D01*
X141580000Y-116313114D01*
X141580000Y-116066886D01*
X141531963Y-115825389D01*
X141437735Y-115597903D01*
X141300938Y-115393172D01*
X141126828Y-115219062D01*
X140922097Y-115082265D01*
X140694611Y-114988037D01*
X140453114Y-114940000D01*
X140206886Y-114940000D01*
X139965389Y-114988037D01*
X139737903Y-115082265D01*
X139533172Y-115219062D01*
X139359062Y-115393172D01*
X139222265Y-115597903D01*
X139128037Y-115825389D01*
X139080000Y-116066886D01*
X139080000Y-116313114D01*
X139128037Y-116554611D01*
X139222265Y-116782097D01*
X139341136Y-116960000D01*
X138778864Y-116960000D01*
X138897735Y-116782097D01*
X138991963Y-116554611D01*
X139040000Y-116313114D01*
X139040000Y-116066886D01*
X138991963Y-115825389D01*
X138897735Y-115597903D01*
X138760938Y-115393172D01*
X138586828Y-115219062D01*
X138382097Y-115082265D01*
X138154611Y-114988037D01*
X137913114Y-114940000D01*
X137666886Y-114940000D01*
X137425389Y-114988037D01*
X137197903Y-115082265D01*
X136993172Y-115219062D01*
X136819062Y-115393172D01*
X136682265Y-115597903D01*
X136588037Y-115825389D01*
X136540000Y-116066886D01*
X136540000Y-116313114D01*
X136588037Y-116554611D01*
X136682265Y-116782097D01*
X136801136Y-116960000D01*
X136238864Y-116960000D01*
X136357735Y-116782097D01*
X136451963Y-116554611D01*
X136500000Y-116313114D01*
X136500000Y-116066886D01*
X136451963Y-115825389D01*
X136357735Y-115597903D01*
X136220938Y-115393172D01*
X136046828Y-115219062D01*
X135842097Y-115082265D01*
X135614611Y-114988037D01*
X135373114Y-114940000D01*
X135126886Y-114940000D01*
X134885389Y-114988037D01*
X134657903Y-115082265D01*
X134453172Y-115219062D01*
X134279062Y-115393172D01*
X134142265Y-115597903D01*
X134048037Y-115825389D01*
X134000000Y-116066886D01*
X134000000Y-116313114D01*
X134048037Y-116554611D01*
X134142265Y-116782097D01*
X134261136Y-116960000D01*
X133698864Y-116960000D01*
X133817735Y-116782097D01*
X133911963Y-116554611D01*
X133960000Y-116313114D01*
X133960000Y-116066886D01*
X133911963Y-115825389D01*
X133817735Y-115597903D01*
X133680938Y-115393172D01*
X133506828Y-115219062D01*
X133302097Y-115082265D01*
X133074611Y-114988037D01*
X132833114Y-114940000D01*
X132586886Y-114940000D01*
X132345389Y-114988037D01*
X132117903Y-115082265D01*
X131913172Y-115219062D01*
X131739062Y-115393172D01*
X131602265Y-115597903D01*
X131547412Y-115730330D01*
X131476935Y-115543700D01*
X131325736Y-115301148D01*
X131130122Y-115092754D01*
X130897611Y-114926527D01*
X130637139Y-114808854D01*
X130548910Y-114782097D01*
X130324000Y-114893111D01*
X130324000Y-116036000D01*
X130344000Y-116036000D01*
X130344000Y-116344000D01*
X130324000Y-116344000D01*
X130324000Y-116364000D01*
X130016000Y-116364000D01*
X130016000Y-116344000D01*
X129996000Y-116344000D01*
X129996000Y-116036000D01*
X130016000Y-116036000D01*
X130016000Y-114893111D01*
X129791090Y-114782097D01*
X129702861Y-114808854D01*
X129442389Y-114926527D01*
X129209878Y-115092754D01*
X129014264Y-115301148D01*
X128863065Y-115543700D01*
X128792588Y-115730330D01*
X128737735Y-115597903D01*
X128600938Y-115393172D01*
X128426828Y-115219062D01*
X128222097Y-115082265D01*
X127994611Y-114988037D01*
X127753114Y-114940000D01*
X127506886Y-114940000D01*
X127265389Y-114988037D01*
X127037903Y-115082265D01*
X126833172Y-115219062D01*
X126659062Y-115393172D01*
X126522265Y-115597903D01*
X126428037Y-115825389D01*
X126380000Y-116066886D01*
X126380000Y-116313114D01*
X126428037Y-116554611D01*
X126522265Y-116782097D01*
X126641136Y-116960000D01*
X126078864Y-116960000D01*
X126197735Y-116782097D01*
X126291963Y-116554611D01*
X126340000Y-116313114D01*
X126340000Y-116066886D01*
X126291963Y-115825389D01*
X126197735Y-115597903D01*
X126060938Y-115393172D01*
X125886828Y-115219062D01*
X125682097Y-115082265D01*
X125454611Y-114988037D01*
X125213114Y-114940000D01*
X124966886Y-114940000D01*
X124725389Y-114988037D01*
X124497903Y-115082265D01*
X124293172Y-115219062D01*
X124119062Y-115393172D01*
X123982265Y-115597903D01*
X123888037Y-115825389D01*
X123840000Y-116066886D01*
X123840000Y-116313114D01*
X123888037Y-116554611D01*
X123982265Y-116782097D01*
X124101136Y-116960000D01*
X123538864Y-116960000D01*
X123657735Y-116782097D01*
X123751963Y-116554611D01*
X123800000Y-116313114D01*
X123800000Y-116066886D01*
X123751963Y-115825389D01*
X123657735Y-115597903D01*
X123520938Y-115393172D01*
X123346828Y-115219062D01*
X123142097Y-115082265D01*
X122914611Y-114988037D01*
X122673114Y-114940000D01*
X122426886Y-114940000D01*
X122185389Y-114988037D01*
X121957903Y-115082265D01*
X121753172Y-115219062D01*
X121579062Y-115393172D01*
X121442265Y-115597903D01*
X121348037Y-115825389D01*
X121300000Y-116066886D01*
X121300000Y-116313114D01*
X121348037Y-116554611D01*
X121442265Y-116782097D01*
X121561136Y-116960000D01*
X118715440Y-116960000D01*
X118641983Y-116967235D01*
X118627343Y-116971676D01*
X118339350Y-116943438D01*
X117953956Y-116827081D01*
X117598505Y-116638085D01*
X117286534Y-116383646D01*
X117029927Y-116073461D01*
X116838452Y-115719335D01*
X116719409Y-115334770D01*
X116687828Y-115034294D01*
X116692765Y-115018017D01*
X116700000Y-114944560D01*
X116700000Y-114747640D01*
X116990000Y-114747640D01*
X116990000Y-115092360D01*
X117057251Y-115430456D01*
X117189170Y-115748936D01*
X117380686Y-116035560D01*
X117624440Y-116279314D01*
X117911064Y-116470830D01*
X118229544Y-116602749D01*
X118567640Y-116670000D01*
X118912360Y-116670000D01*
X119250456Y-116602749D01*
X119568936Y-116470830D01*
X119855560Y-116279314D01*
X120099314Y-116035560D01*
X120290830Y-115748936D01*
X120422749Y-115430456D01*
X120490000Y-115092360D01*
X120490000Y-114747640D01*
X120422749Y-114409544D01*
X120290830Y-114091064D01*
X120099314Y-113804440D01*
X119855560Y-113560686D01*
X119568936Y-113369170D01*
X119250456Y-113237251D01*
X118912360Y-113170000D01*
X118567640Y-113170000D01*
X118229544Y-113237251D01*
X117911064Y-113369170D01*
X117624440Y-113560686D01*
X117380686Y-113804440D01*
X117189170Y-114091064D01*
X117057251Y-114409544D01*
X116990000Y-114747640D01*
X116700000Y-114747640D01*
X116700000Y-111162489D01*
X121000000Y-111162489D01*
X121000000Y-111487511D01*
X121063408Y-111806287D01*
X121187789Y-112106568D01*
X121368361Y-112376814D01*
X121598186Y-112606639D01*
X121868432Y-112787211D01*
X122168713Y-112911592D01*
X122487489Y-112975000D01*
X122812511Y-112975000D01*
X123131287Y-112911592D01*
X123431568Y-112787211D01*
X123701814Y-112606639D01*
X123931639Y-112376814D01*
X124112211Y-112106568D01*
X124236592Y-111806287D01*
X124300000Y-111487511D01*
X124300000Y-111162489D01*
X124236592Y-110843713D01*
X124112211Y-110543432D01*
X123931639Y-110273186D01*
X123701814Y-110043361D01*
X123431568Y-109862789D01*
X123131287Y-109738408D01*
X122812511Y-109675000D01*
X122487489Y-109675000D01*
X122168713Y-109738408D01*
X121868432Y-109862789D01*
X121598186Y-110043361D01*
X121368361Y-110273186D01*
X121187789Y-110543432D01*
X121063408Y-110843713D01*
X121000000Y-111162489D01*
X116700000Y-111162489D01*
X116700000Y-107460981D01*
X130650000Y-107460981D01*
X130650000Y-107589019D01*
X130674979Y-107714598D01*
X130723978Y-107832890D01*
X130795112Y-107939351D01*
X130885649Y-108029888D01*
X130992110Y-108101022D01*
X131110402Y-108150021D01*
X131235981Y-108175000D01*
X131364019Y-108175000D01*
X131489598Y-108150021D01*
X131607890Y-108101022D01*
X131714351Y-108029888D01*
X131800001Y-107944238D01*
X131800001Y-109980760D01*
X131795112Y-109985649D01*
X131723978Y-110092110D01*
X131674979Y-110210402D01*
X131650000Y-110335981D01*
X131650000Y-110464019D01*
X131674979Y-110589598D01*
X131723978Y-110707890D01*
X131795112Y-110814351D01*
X131885649Y-110904888D01*
X131992110Y-110976022D01*
X132110402Y-111025021D01*
X132235981Y-111050000D01*
X132364019Y-111050000D01*
X132489598Y-111025021D01*
X132607890Y-110976022D01*
X132714351Y-110904888D01*
X132804888Y-110814351D01*
X132876022Y-110707890D01*
X132925021Y-110589598D01*
X132950000Y-110464019D01*
X132950000Y-110335981D01*
X132925021Y-110210402D01*
X132876022Y-110092110D01*
X132804888Y-109985649D01*
X132800000Y-109980761D01*
X132800000Y-105207105D01*
X133657107Y-104350000D01*
X133664019Y-104350000D01*
X133789598Y-104325021D01*
X133907890Y-104276022D01*
X134014351Y-104204888D01*
X134104888Y-104114351D01*
X134176022Y-104007890D01*
X134225021Y-103889598D01*
X134250000Y-103764019D01*
X134250000Y-103635981D01*
X134225021Y-103510402D01*
X134176022Y-103392110D01*
X134104888Y-103285649D01*
X134014351Y-103195112D01*
X133907890Y-103123978D01*
X133789598Y-103074979D01*
X133664019Y-103050000D01*
X133535981Y-103050000D01*
X133410402Y-103074979D01*
X133292110Y-103123978D01*
X133185649Y-103195112D01*
X133095112Y-103285649D01*
X133023978Y-103392110D01*
X132974979Y-103510402D01*
X132950000Y-103635981D01*
X132950000Y-103642893D01*
X131963824Y-104629071D01*
X131944736Y-104644736D01*
X131882254Y-104720871D01*
X131835825Y-104807734D01*
X131827304Y-104835825D01*
X131807235Y-104901983D01*
X131797581Y-105000000D01*
X131800000Y-105024560D01*
X131800000Y-107105761D01*
X131714351Y-107020112D01*
X131607890Y-106948978D01*
X131489598Y-106899979D01*
X131364019Y-106875000D01*
X131235981Y-106875000D01*
X131110402Y-106899979D01*
X130992110Y-106948978D01*
X130885649Y-107020112D01*
X130795112Y-107110649D01*
X130723978Y-107217110D01*
X130674979Y-107335402D01*
X130650000Y-107460981D01*
X116700000Y-107460981D01*
X116700000Y-97115440D01*
X116692765Y-97041983D01*
X116688324Y-97027343D01*
X116694177Y-96967640D01*
X116990000Y-96967640D01*
X116990000Y-97312360D01*
X117057251Y-97650456D01*
X117189170Y-97968936D01*
X117380686Y-98255560D01*
X117624440Y-98499314D01*
X117911064Y-98690830D01*
X118229544Y-98822749D01*
X118567640Y-98890000D01*
X118912360Y-98890000D01*
X119250456Y-98822749D01*
X119568936Y-98690830D01*
X119855560Y-98499314D01*
X120099314Y-98255560D01*
X120290830Y-97968936D01*
X120422749Y-97650456D01*
X120490000Y-97312360D01*
X120490000Y-96967640D01*
X120422749Y-96629544D01*
X120290830Y-96311064D01*
X120099314Y-96024440D01*
X119855560Y-95780686D01*
X119568936Y-95589170D01*
X119250456Y-95457251D01*
X118912360Y-95390000D01*
X118567640Y-95390000D01*
X118229544Y-95457251D01*
X117911064Y-95589170D01*
X117624440Y-95780686D01*
X117380686Y-96024440D01*
X117189170Y-96311064D01*
X117057251Y-96629544D01*
X116990000Y-96967640D01*
X116694177Y-96967640D01*
X116716562Y-96739350D01*
X116832918Y-96353957D01*
X117021914Y-95998508D01*
X117276354Y-95686534D01*
X117586539Y-95429927D01*
X117940665Y-95238452D01*
X118325231Y-95119409D01*
X118625706Y-95087828D01*
X118641983Y-95092765D01*
G37*
X118641983Y-95092765D02*
X118715440Y-95100000D01*
X131721136Y-95100000D01*
X131602265Y-95277903D01*
X131508037Y-95505389D01*
X131460000Y-95746886D01*
X131460000Y-95993114D01*
X131508037Y-96234611D01*
X131602265Y-96462097D01*
X131739062Y-96666828D01*
X131913172Y-96840938D01*
X132117903Y-96977735D01*
X132345389Y-97071963D01*
X132586886Y-97120000D01*
X132833114Y-97120000D01*
X133074611Y-97071963D01*
X133302097Y-96977735D01*
X133506828Y-96840938D01*
X133680938Y-96666828D01*
X133817735Y-96462097D01*
X133911963Y-96234611D01*
X133960000Y-95993114D01*
X133960000Y-95746886D01*
X133911963Y-95505389D01*
X133817735Y-95277903D01*
X133698864Y-95100000D01*
X134261136Y-95100000D01*
X134142265Y-95277903D01*
X134048037Y-95505389D01*
X134000000Y-95746886D01*
X134000000Y-95993114D01*
X134048037Y-96234611D01*
X134142265Y-96462097D01*
X134279062Y-96666828D01*
X134453172Y-96840938D01*
X134657903Y-96977735D01*
X134885389Y-97071963D01*
X135126886Y-97120000D01*
X135373114Y-97120000D01*
X135614611Y-97071963D01*
X135842097Y-96977735D01*
X136046828Y-96840938D01*
X136220938Y-96666828D01*
X136357735Y-96462097D01*
X136451963Y-96234611D01*
X136500000Y-95993114D01*
X136500000Y-95746886D01*
X136451963Y-95505389D01*
X136357735Y-95277903D01*
X136238864Y-95100000D01*
X136801136Y-95100000D01*
X136682265Y-95277903D01*
X136588037Y-95505389D01*
X136540000Y-95746886D01*
X136540000Y-95993114D01*
X136588037Y-96234611D01*
X136682265Y-96462097D01*
X136819062Y-96666828D01*
X136993172Y-96840938D01*
X137197903Y-96977735D01*
X137425389Y-97071963D01*
X137666886Y-97120000D01*
X137913114Y-97120000D01*
X138154611Y-97071963D01*
X138196709Y-97054526D01*
X138440001Y-97297818D01*
X138440002Y-106062508D01*
X138417746Y-106020871D01*
X138355264Y-105944736D01*
X138336187Y-105929080D01*
X137370929Y-104963824D01*
X137355264Y-104944736D01*
X137279129Y-104882254D01*
X137192267Y-104835825D01*
X137098017Y-104807235D01*
X137024560Y-104800000D01*
X137000000Y-104797581D01*
X136975440Y-104800000D01*
X134319239Y-104800000D01*
X134314351Y-104795112D01*
X134207890Y-104723978D01*
X134089598Y-104674979D01*
X133964019Y-104650000D01*
X133835981Y-104650000D01*
X133710402Y-104674979D01*
X133592110Y-104723978D01*
X133485649Y-104795112D01*
X133395112Y-104885649D01*
X133323978Y-104992110D01*
X133274979Y-105110402D01*
X133250000Y-105235981D01*
X133250000Y-105364019D01*
X133274979Y-105489598D01*
X133323978Y-105607890D01*
X133395112Y-105714351D01*
X133485649Y-105804888D01*
X133592110Y-105876022D01*
X133710402Y-105925021D01*
X133835981Y-105950000D01*
X133964019Y-105950000D01*
X134089598Y-105925021D01*
X134207890Y-105876022D01*
X134314351Y-105804888D01*
X134319239Y-105800000D01*
X136792895Y-105800000D01*
X136996045Y-106003151D01*
X136940490Y-106040271D01*
X136849953Y-106130808D01*
X136778819Y-106237269D01*
X136729820Y-106355561D01*
X136704841Y-106481140D01*
X136704841Y-106609178D01*
X136729820Y-106734757D01*
X136778819Y-106853049D01*
X136849953Y-106959510D01*
X136854842Y-106964399D01*
X136854841Y-109430281D01*
X136852422Y-109454841D01*
X136854841Y-109479400D01*
X136862076Y-109552857D01*
X136890666Y-109647107D01*
X136937095Y-109733970D01*
X136999577Y-109810105D01*
X137018665Y-109825770D01*
X141129075Y-113936181D01*
X141144736Y-113955264D01*
X141144746Y-113955274D01*
X141220881Y-114017756D01*
X141307743Y-114064185D01*
X141401993Y-114092775D01*
X141475450Y-114100010D01*
X141475452Y-114100010D01*
X141500009Y-114102429D01*
X141524567Y-114100010D01*
X141609753Y-114100010D01*
X141634310Y-114102429D01*
X141658868Y-114100010D01*
X145927182Y-114100010D01*
X145925000Y-114110981D01*
X145925000Y-114239019D01*
X145949979Y-114364598D01*
X145998978Y-114482890D01*
X146070112Y-114589351D01*
X146160649Y-114679888D01*
X146267110Y-114751022D01*
X146385402Y-114800021D01*
X146510981Y-114825000D01*
X146639019Y-114825000D01*
X146764598Y-114800021D01*
X146882890Y-114751022D01*
X146989351Y-114679888D01*
X147079888Y-114589351D01*
X147139590Y-114500000D01*
X149627197Y-114500000D01*
X150118207Y-114991012D01*
X149897903Y-115082265D01*
X149693172Y-115219062D01*
X149519062Y-115393172D01*
X149382265Y-115597903D01*
X149288037Y-115825389D01*
X149240000Y-116066886D01*
X149240000Y-116313114D01*
X149288037Y-116554611D01*
X149382265Y-116782097D01*
X149501136Y-116960000D01*
X148938864Y-116960000D01*
X149057735Y-116782097D01*
X149151963Y-116554611D01*
X149200000Y-116313114D01*
X149200000Y-116066886D01*
X149151963Y-115825389D01*
X149057735Y-115597903D01*
X148920938Y-115393172D01*
X148746828Y-115219062D01*
X148542097Y-115082265D01*
X148314611Y-114988037D01*
X148073114Y-114940000D01*
X147826886Y-114940000D01*
X147585389Y-114988037D01*
X147357903Y-115082265D01*
X147153172Y-115219062D01*
X146979062Y-115393172D01*
X146842265Y-115597903D01*
X146748037Y-115825389D01*
X146700000Y-116066886D01*
X146700000Y-116313114D01*
X146748037Y-116554611D01*
X146842265Y-116782097D01*
X146961136Y-116960000D01*
X146398864Y-116960000D01*
X146517735Y-116782097D01*
X146611963Y-116554611D01*
X146660000Y-116313114D01*
X146660000Y-116066886D01*
X146611963Y-115825389D01*
X146517735Y-115597903D01*
X146380938Y-115393172D01*
X146206828Y-115219062D01*
X146002097Y-115082265D01*
X145774611Y-114988037D01*
X145533114Y-114940000D01*
X145286886Y-114940000D01*
X145045389Y-114988037D01*
X144817903Y-115082265D01*
X144613172Y-115219062D01*
X144439062Y-115393172D01*
X144302265Y-115597903D01*
X144208037Y-115825389D01*
X144160000Y-116066886D01*
X144160000Y-116313114D01*
X144208037Y-116554611D01*
X144302265Y-116782097D01*
X144421136Y-116960000D01*
X143858864Y-116960000D01*
X143977735Y-116782097D01*
X144071963Y-116554611D01*
X144120000Y-116313114D01*
X144120000Y-116066886D01*
X144071963Y-115825389D01*
X143977735Y-115597903D01*
X143840938Y-115393172D01*
X143666828Y-115219062D01*
X143462097Y-115082265D01*
X143234611Y-114988037D01*
X142993114Y-114940000D01*
X142746886Y-114940000D01*
X142505389Y-114988037D01*
X142277903Y-115082265D01*
X142073172Y-115219062D01*
X141899062Y-115393172D01*
X141762265Y-115597903D01*
X141668037Y-115825389D01*
X141620000Y-116066886D01*
X141620000Y-116313114D01*
X141668037Y-116554611D01*
X141762265Y-116782097D01*
X141881136Y-116960000D01*
X141318864Y-116960000D01*
X141437735Y-116782097D01*
X141531963Y-116554611D01*
X141580000Y-116313114D01*
X141580000Y-116066886D01*
X141531963Y-115825389D01*
X141437735Y-115597903D01*
X141300938Y-115393172D01*
X141126828Y-115219062D01*
X140922097Y-115082265D01*
X140694611Y-114988037D01*
X140453114Y-114940000D01*
X140206886Y-114940000D01*
X139965389Y-114988037D01*
X139737903Y-115082265D01*
X139533172Y-115219062D01*
X139359062Y-115393172D01*
X139222265Y-115597903D01*
X139128037Y-115825389D01*
X139080000Y-116066886D01*
X139080000Y-116313114D01*
X139128037Y-116554611D01*
X139222265Y-116782097D01*
X139341136Y-116960000D01*
X138778864Y-116960000D01*
X138897735Y-116782097D01*
X138991963Y-116554611D01*
X139040000Y-116313114D01*
X139040000Y-116066886D01*
X138991963Y-115825389D01*
X138897735Y-115597903D01*
X138760938Y-115393172D01*
X138586828Y-115219062D01*
X138382097Y-115082265D01*
X138154611Y-114988037D01*
X137913114Y-114940000D01*
X137666886Y-114940000D01*
X137425389Y-114988037D01*
X137197903Y-115082265D01*
X136993172Y-115219062D01*
X136819062Y-115393172D01*
X136682265Y-115597903D01*
X136588037Y-115825389D01*
X136540000Y-116066886D01*
X136540000Y-116313114D01*
X136588037Y-116554611D01*
X136682265Y-116782097D01*
X136801136Y-116960000D01*
X136238864Y-116960000D01*
X136357735Y-116782097D01*
X136451963Y-116554611D01*
X136500000Y-116313114D01*
X136500000Y-116066886D01*
X136451963Y-115825389D01*
X136357735Y-115597903D01*
X136220938Y-115393172D01*
X136046828Y-115219062D01*
X135842097Y-115082265D01*
X135614611Y-114988037D01*
X135373114Y-114940000D01*
X135126886Y-114940000D01*
X134885389Y-114988037D01*
X134657903Y-115082265D01*
X134453172Y-115219062D01*
X134279062Y-115393172D01*
X134142265Y-115597903D01*
X134048037Y-115825389D01*
X134000000Y-116066886D01*
X134000000Y-116313114D01*
X134048037Y-116554611D01*
X134142265Y-116782097D01*
X134261136Y-116960000D01*
X133698864Y-116960000D01*
X133817735Y-116782097D01*
X133911963Y-116554611D01*
X133960000Y-116313114D01*
X133960000Y-116066886D01*
X133911963Y-115825389D01*
X133817735Y-115597903D01*
X133680938Y-115393172D01*
X133506828Y-115219062D01*
X133302097Y-115082265D01*
X133074611Y-114988037D01*
X132833114Y-114940000D01*
X132586886Y-114940000D01*
X132345389Y-114988037D01*
X132117903Y-115082265D01*
X131913172Y-115219062D01*
X131739062Y-115393172D01*
X131602265Y-115597903D01*
X131547412Y-115730330D01*
X131476935Y-115543700D01*
X131325736Y-115301148D01*
X131130122Y-115092754D01*
X130897611Y-114926527D01*
X130637139Y-114808854D01*
X130548910Y-114782097D01*
X130324000Y-114893111D01*
X130324000Y-116036000D01*
X130344000Y-116036000D01*
X130344000Y-116344000D01*
X130324000Y-116344000D01*
X130324000Y-116364000D01*
X130016000Y-116364000D01*
X130016000Y-116344000D01*
X129996000Y-116344000D01*
X129996000Y-116036000D01*
X130016000Y-116036000D01*
X130016000Y-114893111D01*
X129791090Y-114782097D01*
X129702861Y-114808854D01*
X129442389Y-114926527D01*
X129209878Y-115092754D01*
X129014264Y-115301148D01*
X128863065Y-115543700D01*
X128792588Y-115730330D01*
X128737735Y-115597903D01*
X128600938Y-115393172D01*
X128426828Y-115219062D01*
X128222097Y-115082265D01*
X127994611Y-114988037D01*
X127753114Y-114940000D01*
X127506886Y-114940000D01*
X127265389Y-114988037D01*
X127037903Y-115082265D01*
X126833172Y-115219062D01*
X126659062Y-115393172D01*
X126522265Y-115597903D01*
X126428037Y-115825389D01*
X126380000Y-116066886D01*
X126380000Y-116313114D01*
X126428037Y-116554611D01*
X126522265Y-116782097D01*
X126641136Y-116960000D01*
X126078864Y-116960000D01*
X126197735Y-116782097D01*
X126291963Y-116554611D01*
X126340000Y-116313114D01*
X126340000Y-116066886D01*
X126291963Y-115825389D01*
X126197735Y-115597903D01*
X126060938Y-115393172D01*
X125886828Y-115219062D01*
X125682097Y-115082265D01*
X125454611Y-114988037D01*
X125213114Y-114940000D01*
X124966886Y-114940000D01*
X124725389Y-114988037D01*
X124497903Y-115082265D01*
X124293172Y-115219062D01*
X124119062Y-115393172D01*
X123982265Y-115597903D01*
X123888037Y-115825389D01*
X123840000Y-116066886D01*
X123840000Y-116313114D01*
X123888037Y-116554611D01*
X123982265Y-116782097D01*
X124101136Y-116960000D01*
X123538864Y-116960000D01*
X123657735Y-116782097D01*
X123751963Y-116554611D01*
X123800000Y-116313114D01*
X123800000Y-116066886D01*
X123751963Y-115825389D01*
X123657735Y-115597903D01*
X123520938Y-115393172D01*
X123346828Y-115219062D01*
X123142097Y-115082265D01*
X122914611Y-114988037D01*
X122673114Y-114940000D01*
X122426886Y-114940000D01*
X122185389Y-114988037D01*
X121957903Y-115082265D01*
X121753172Y-115219062D01*
X121579062Y-115393172D01*
X121442265Y-115597903D01*
X121348037Y-115825389D01*
X121300000Y-116066886D01*
X121300000Y-116313114D01*
X121348037Y-116554611D01*
X121442265Y-116782097D01*
X121561136Y-116960000D01*
X118715440Y-116960000D01*
X118641983Y-116967235D01*
X118627343Y-116971676D01*
X118339350Y-116943438D01*
X117953956Y-116827081D01*
X117598505Y-116638085D01*
X117286534Y-116383646D01*
X117029927Y-116073461D01*
X116838452Y-115719335D01*
X116719409Y-115334770D01*
X116687828Y-115034294D01*
X116692765Y-115018017D01*
X116700000Y-114944560D01*
X116700000Y-114747640D01*
X116990000Y-114747640D01*
X116990000Y-115092360D01*
X117057251Y-115430456D01*
X117189170Y-115748936D01*
X117380686Y-116035560D01*
X117624440Y-116279314D01*
X117911064Y-116470830D01*
X118229544Y-116602749D01*
X118567640Y-116670000D01*
X118912360Y-116670000D01*
X119250456Y-116602749D01*
X119568936Y-116470830D01*
X119855560Y-116279314D01*
X120099314Y-116035560D01*
X120290830Y-115748936D01*
X120422749Y-115430456D01*
X120490000Y-115092360D01*
X120490000Y-114747640D01*
X120422749Y-114409544D01*
X120290830Y-114091064D01*
X120099314Y-113804440D01*
X119855560Y-113560686D01*
X119568936Y-113369170D01*
X119250456Y-113237251D01*
X118912360Y-113170000D01*
X118567640Y-113170000D01*
X118229544Y-113237251D01*
X117911064Y-113369170D01*
X117624440Y-113560686D01*
X117380686Y-113804440D01*
X117189170Y-114091064D01*
X117057251Y-114409544D01*
X116990000Y-114747640D01*
X116700000Y-114747640D01*
X116700000Y-111162489D01*
X121000000Y-111162489D01*
X121000000Y-111487511D01*
X121063408Y-111806287D01*
X121187789Y-112106568D01*
X121368361Y-112376814D01*
X121598186Y-112606639D01*
X121868432Y-112787211D01*
X122168713Y-112911592D01*
X122487489Y-112975000D01*
X122812511Y-112975000D01*
X123131287Y-112911592D01*
X123431568Y-112787211D01*
X123701814Y-112606639D01*
X123931639Y-112376814D01*
X124112211Y-112106568D01*
X124236592Y-111806287D01*
X124300000Y-111487511D01*
X124300000Y-111162489D01*
X124236592Y-110843713D01*
X124112211Y-110543432D01*
X123931639Y-110273186D01*
X123701814Y-110043361D01*
X123431568Y-109862789D01*
X123131287Y-109738408D01*
X122812511Y-109675000D01*
X122487489Y-109675000D01*
X122168713Y-109738408D01*
X121868432Y-109862789D01*
X121598186Y-110043361D01*
X121368361Y-110273186D01*
X121187789Y-110543432D01*
X121063408Y-110843713D01*
X121000000Y-111162489D01*
X116700000Y-111162489D01*
X116700000Y-107460981D01*
X130650000Y-107460981D01*
X130650000Y-107589019D01*
X130674979Y-107714598D01*
X130723978Y-107832890D01*
X130795112Y-107939351D01*
X130885649Y-108029888D01*
X130992110Y-108101022D01*
X131110402Y-108150021D01*
X131235981Y-108175000D01*
X131364019Y-108175000D01*
X131489598Y-108150021D01*
X131607890Y-108101022D01*
X131714351Y-108029888D01*
X131800001Y-107944238D01*
X131800001Y-109980760D01*
X131795112Y-109985649D01*
X131723978Y-110092110D01*
X131674979Y-110210402D01*
X131650000Y-110335981D01*
X131650000Y-110464019D01*
X131674979Y-110589598D01*
X131723978Y-110707890D01*
X131795112Y-110814351D01*
X131885649Y-110904888D01*
X131992110Y-110976022D01*
X132110402Y-111025021D01*
X132235981Y-111050000D01*
X132364019Y-111050000D01*
X132489598Y-111025021D01*
X132607890Y-110976022D01*
X132714351Y-110904888D01*
X132804888Y-110814351D01*
X132876022Y-110707890D01*
X132925021Y-110589598D01*
X132950000Y-110464019D01*
X132950000Y-110335981D01*
X132925021Y-110210402D01*
X132876022Y-110092110D01*
X132804888Y-109985649D01*
X132800000Y-109980761D01*
X132800000Y-105207105D01*
X133657107Y-104350000D01*
X133664019Y-104350000D01*
X133789598Y-104325021D01*
X133907890Y-104276022D01*
X134014351Y-104204888D01*
X134104888Y-104114351D01*
X134176022Y-104007890D01*
X134225021Y-103889598D01*
X134250000Y-103764019D01*
X134250000Y-103635981D01*
X134225021Y-103510402D01*
X134176022Y-103392110D01*
X134104888Y-103285649D01*
X134014351Y-103195112D01*
X133907890Y-103123978D01*
X133789598Y-103074979D01*
X133664019Y-103050000D01*
X133535981Y-103050000D01*
X133410402Y-103074979D01*
X133292110Y-103123978D01*
X133185649Y-103195112D01*
X133095112Y-103285649D01*
X133023978Y-103392110D01*
X132974979Y-103510402D01*
X132950000Y-103635981D01*
X132950000Y-103642893D01*
X131963824Y-104629071D01*
X131944736Y-104644736D01*
X131882254Y-104720871D01*
X131835825Y-104807734D01*
X131827304Y-104835825D01*
X131807235Y-104901983D01*
X131797581Y-105000000D01*
X131800000Y-105024560D01*
X131800000Y-107105761D01*
X131714351Y-107020112D01*
X131607890Y-106948978D01*
X131489598Y-106899979D01*
X131364019Y-106875000D01*
X131235981Y-106875000D01*
X131110402Y-106899979D01*
X130992110Y-106948978D01*
X130885649Y-107020112D01*
X130795112Y-107110649D01*
X130723978Y-107217110D01*
X130674979Y-107335402D01*
X130650000Y-107460981D01*
X116700000Y-107460981D01*
X116700000Y-97115440D01*
X116692765Y-97041983D01*
X116688324Y-97027343D01*
X116694177Y-96967640D01*
X116990000Y-96967640D01*
X116990000Y-97312360D01*
X117057251Y-97650456D01*
X117189170Y-97968936D01*
X117380686Y-98255560D01*
X117624440Y-98499314D01*
X117911064Y-98690830D01*
X118229544Y-98822749D01*
X118567640Y-98890000D01*
X118912360Y-98890000D01*
X119250456Y-98822749D01*
X119568936Y-98690830D01*
X119855560Y-98499314D01*
X120099314Y-98255560D01*
X120290830Y-97968936D01*
X120422749Y-97650456D01*
X120490000Y-97312360D01*
X120490000Y-96967640D01*
X120422749Y-96629544D01*
X120290830Y-96311064D01*
X120099314Y-96024440D01*
X119855560Y-95780686D01*
X119568936Y-95589170D01*
X119250456Y-95457251D01*
X118912360Y-95390000D01*
X118567640Y-95390000D01*
X118229544Y-95457251D01*
X117911064Y-95589170D01*
X117624440Y-95780686D01*
X117380686Y-96024440D01*
X117189170Y-96311064D01*
X117057251Y-96629544D01*
X116990000Y-96967640D01*
X116694177Y-96967640D01*
X116716562Y-96739350D01*
X116832918Y-96353957D01*
X117021914Y-95998508D01*
X117276354Y-95686534D01*
X117586539Y-95429927D01*
X117940665Y-95238452D01*
X118325231Y-95119409D01*
X118625706Y-95087828D01*
X118641983Y-95092765D01*
M02*
